<?xml version="1.0" encoding="UTF-8"?> <svg xmlns="http://www.w3.org/2000/svg" width="125" height="40" viewBox="0 0 125 40" fill="none"><g clip-path="url(#clip0)"><path fill-rule="evenodd" clip-rule="evenodd" d="M23.0396 0.00512695H0.137695V18.3822H23.0396C25.4966 18.3822 27.8529 17.4141 29.5902 15.6909C31.3276 13.9677 32.3036 11.6306 32.3036 9.19365C32.3033 6.75678 31.3272 4.41981 29.5899 2.69668C27.8527 0.973561 25.4965 0.00539943 23.0396 0.00512695Z" fill="#F64B1C"></path><path fill-rule="evenodd" clip-rule="evenodd" d="M0.137696 31.3306C0.137152 32.4517 0.359292 33.5619 0.791429 34.5979C1.22357 35.6338 1.85723 36.5751 2.65623 37.3681C3.45523 38.161 4.4039 38.7901 5.44807 39.2194C6.49223 39.6486 7.61143 39.8696 8.74172 39.8697H12.2641V21.4875H0.137696V31.3306Z" fill="#F64B1C"></path><path d="M23.2029 39.8646C28.2294 39.8646 32.3042 35.7508 32.3042 30.6761C32.3042 25.6014 28.2294 21.4875 23.2029 21.4875C18.1764 21.4875 14.1016 25.6014 14.1016 30.6761C14.1016 35.7508 18.1764 39.8646 23.2029 39.8646Z" fill="#F64B1C"></path><path d="M45.2734 7.6709H54.3457C58.8306 7.6709 61.9355 10.1689 61.9355 14.2062C61.9355 16.9437 60.2779 18.9618 58.6203 19.6123C60.5524 20.16 62.7643 22.0075 62.7643 25.3266C62.7643 29.3978 59.3838 31.9637 54.6234 31.9637H45.2734V7.6709ZM49.8267 11.6394V17.7986H54.0007C56.1401 17.7986 57.316 16.3271 57.316 14.5823C57.316 12.9742 56.0728 11.6394 53.8971 11.6394H49.8267ZM54.5871 27.9952C56.6229 27.9952 58.037 26.5237 58.037 24.6761C58.037 22.8964 56.3794 21.4598 54.2038 21.4598H49.8236V27.9952H54.5871Z" fill="#2F4858"></path><path d="M74.0516 14.1033C79.0534 14.1033 82.3303 17.559 82.3303 22.1779C82.3155 22.9048 82.2231 23.6282 82.0547 24.3358H69.7056C69.9812 27.0732 72.2956 28.5098 74.8794 28.5098C75.744 28.5182 76.601 28.349 77.3965 28.013C78.1921 27.677 78.9089 27.1814 79.502 26.5574L81.9884 29.5004C79.8491 31.5195 77.5336 32.3776 74.6743 32.3776C68.8789 32.3776 65.0498 28.4081 65.0498 23.2764C65.0498 18.1447 68.8084 14.1033 74.0516 14.1033ZM69.7056 21.323H77.9501V21.288C77.7771 19.1671 76.1216 17.8333 74.0133 17.8333C71.8097 17.8333 70.0506 19.1332 69.7056 21.323Z" fill="#2F4858"></path><path d="M86.1779 14.5145V9.76196H90.5239V14.5186H94.698V18.076H90.5239V25.8434C90.5239 27.5903 91.3869 28.3753 92.973 28.3753C93.491 28.3753 94.353 28.3075 95.1486 27.7937V31.6985C94.355 32.1095 93.2517 32.3829 91.8023 32.3829C88.2146 32.3829 86.0411 30.262 86.0411 26.498V18.0719H83.5547V14.5145H86.1779Z" fill="#2F4858"></path><path d="M99.1553 14.5145V9.76196H103.507V14.5186H107.681V18.076H103.502V25.8434C103.502 27.5903 104.364 28.3753 105.952 28.3753C106.47 28.3753 107.331 28.3075 108.127 27.7937V31.6985C107.334 32.1095 106.229 32.3829 104.78 32.3829C101.193 32.3829 99.0196 30.262 99.0196 26.498V18.0719H96.5332V14.5145H99.1553Z" fill="#2F4858"></path><path d="M112.902 26.2154C113.868 27.7208 115.248 28.7843 117.11 28.7843C118.768 28.7843 119.767 28.1678 119.767 27.2789C119.767 26.1835 118.834 25.7376 115.973 24.7809C112.385 23.6177 110.453 22.1462 110.453 19.306C110.453 16.2952 113.42 14.1055 117.214 14.1055C120.115 14.1055 122.492 15.4742 123.631 17.5612L120.626 19.7191C119.901 18.5209 118.798 17.6639 117.142 17.6639C115.728 17.6639 114.656 18.3144 114.656 19.2721C114.656 20.162 115.623 20.6747 118.313 21.6355C121.659 22.8686 123.971 23.9989 123.971 27.1782C123.971 30.1201 121.173 32.3787 117.105 32.3787C113.966 32.3787 111.172 30.9073 109.861 28.4442L112.902 26.2154Z" fill="#2F4858"></path></g><defs><clipPath id="clip0"><rect width="124.01" height="39.9724" fill="white"></rect></clipPath></defs></svg> 