<svg id="biview_logo" data-name="biview logo" xmlns="http://www.w3.org/2000/svg" width="205" height="45.936" viewBox="0 0 205 45.936">
  <path id="Path_11575" data-name="Path 11575" d="M109.55,39.6c2.756,2.046,5.177,4.05,8.058,5.261,1.169.459.752,1.336.668,2.046-.752,6.137-1.587,12.233-2.38,18.329-.209,1.628-.543,3.257-.626,4.885s-.585,1.461-1.67,1.461c-2.38-.083-4.76-.125-7.14,0-1.461.084-1.754-.376-1.545-1.8,1-6.346,1.921-12.734,2.881-19.122C108.34,47.074,108.924,43.483,109.55,39.6Z" transform="translate(-63.582 -25.655)" fill="#f27423"/>
  <path id="Path_11576" data-name="Path 11576" d="M155.785,17.592A25.467,25.467,0,0,0,146.6,11.2l8.935-.418c1.211-.084,1.42.376,1.211,1.42C156.412,13.876,156.161,15.546,155.785,17.592Z" transform="translate(-87.897 -8.866)" fill="#f89d21"/>
  <path id="Path_11577" data-name="Path 11577" d="M46.541,32.921c0,11.064-8.1,19.206-17.995,19.206-4.76,0-8.559-1.587-10.563-5.261l-.919,4.676H6L15.06,6.2H26.667L23.744,20.938a13.4,13.4,0,0,1,8.768-3.048C39.693,17.89,46.541,23.318,46.541,32.921Zm-11.732.585c0-3.841-2.338-6.346-6.3-6.346s-7.891,3.758-7.891,9.311c0,3.841,2.338,6.3,6.3,6.3C31.51,42.774,34.809,39.017,34.809,33.505Z" transform="translate(-6 -6.2)" fill="#5a5a5a"/>
  <path id="Path_11578" data-name="Path 11578" d="M212.91,47.2,195.583,75.549H185.312L179.3,47.2h9.812l3.465,17.369L203.057,47.2Z" transform="translate(-106.945 -30.082)" fill="#5a5a5a"/>
  <path id="Path_11579" data-name="Path 11579" d="M246.4,69.349h9.853L261.932,41h-9.9Z" transform="translate(-143.524 -23.882)" fill="#5a5a5a"/>
  <path id="Path_11580" data-name="Path 11580" d="M324.22,63.176H303.428c.334,3.173,2.505,4.634,6.43,4.634a11.022,11.022,0,0,0,6.847-2.3l4.133,6.221a20.353,20.353,0,0,1-12.108,3.632c-9.06,0-15.031-5.01-15.031-12.9,0-9.394,6.931-16.367,17.118-16.367,8.643,0,13.987,5.01,13.987,12.442A22.3,22.3,0,0,1,324.22,63.176Zm-20.249-5.219h11.69c.042-3.006-2.088-4.8-5.3-4.8A6.6,6.6,0,0,0,303.971,57.957Z" transform="translate(-173.581 -29.441)" fill="#5a5a5a"/>
  <path id="Path_11581" data-name="Path 11581" d="M426.112,47.2l-15.49,28.349H400.81l-2.672-15.406L389.83,75.549H380.1L375.3,47.2h9.1l2.547,17.035L396.3,47.2h8.517l2.63,17.035L416.8,47.2Z" transform="translate(-221.112 -30.082)" fill="#5a5a5a"/>
  <path id="Path_11582" data-name="Path 11582" d="M139.822,46.253s9.812-3.173,10.271-4.092S147.838,63.5,147.838,63.5H137.4Z" transform="translate(-82.538 -27.131)" fill="#e96127"/>
  <circle id="Ellipse_409" data-name="Ellipse 409" cx="5.97" cy="5.97" r="5.97" transform="translate(51.062 5.302)" fill="#6d6d6d"/>
</svg>
