<?xml version="1.0" standalone="no"?>
<!DOCTYPE svg PUBLIC "-//W3C//DTD SVG 20010904//EN"
 "http://www.w3.org/TR/2001/REC-SVG-20010904/DTD/svg10.dtd">
<svg version="1.0" xmlns="http://www.w3.org/2000/svg"
 width="836.000000pt" height="334.000000pt" viewBox="0 0 836.000000 334.000000"
 preserveAspectRatio="xMidYMid meet">

<g transform="translate(0.000000,334.000000) scale(0.100000,-0.100000)"
fill="#000000" stroke="none">
<path d="M1160 2805 c0 -256 3 -465 8 -465 4 0 75 47 157 104 l150 103 3 256
2 256 -154 105 c-85 58 -157 106 -160 106 -3 0 -6 -209 -6 -465z m143 158
c-21 -8 -16 -43 6 -43 27 0 36 17 19 37 -11 14 -11 16 2 11 8 -2 16 -17 18
-31 3 -25 0 -27 -32 -27 -19 0 -38 5 -41 10 -10 17 5 50 23 49 11 0 12 -3 5
-6z m9 -84 c16 -9 23 -8 29 2 6 10 9 8 9 -8 0 -26 -22 -30 -40 -8 -7 8 -16 15
-21 15 -5 0 -9 -7 -9 -15 0 -8 -4 -15 -10 -15 -11 0 -14 23 -3 33 9 10 21 9
45 -4z m38 -81 c0 -3 -14 -11 -31 -17 -39 -13 -42 -14 -34 -1 3 6 16 10 28 10
l22 1 -22 18 c-32 27 -28 33 7 13 16 -9 30 -20 30 -24z m-23 -55 c-33 -5 -31
-25 4 -34 20 -6 18 -7 -12 -8 -32 -1 -36 2 -34 22 1 12 3 23 4 25 0 1 16 1 34
1 31 -2 31 -2 4 -6z m23 -87 c0 -32 -38 -46 -56 -21 -18 25 -6 45 27 45 24 0
29 -4 29 -24z m-37 -94 c12 2 24 13 29 28 6 23 7 23 5 -5 -2 -24 -7 -31 -28
-33 -31 -4 -54 21 -43 45 6 15 8 13 12 -10 3 -22 8 -28 25 -25z"/>
<path d="M1302 2653 c2 -10 10 -18 18 -18 22 0 18 29 -3 33 -14 3 -18 -1 -15
-15z"/>
<path d="M280 2830 l0 -270 269 0 c248 0 270 1 274 18 3 9 4 64 3 122 -2 58
-1 111 2 118 3 9 38 12 128 12 104 0 124 -2 124 -15 0 -18 2 -18 35 -3 32 14
32 22 -2 37 -19 9 -29 9 -31 2 -2 -7 -49 -11 -132 -11 l-128 0 0 93 c0 50 0
109 -1 130 l-1 37 -270 0 -270 0 0 -270z m510 159 c0 -11 -4 -17 -10 -14 -5 3
-10 13 -10 21 0 8 5 14 10 14 6 0 10 -9 10 -21z m-340 2 c0 -6 -4 -13 -10 -16
-5 -3 -10 1 -10 9 0 9 5 16 10 16 6 0 10 -4 10 -9z m75 -81 c3 -5 -1 -10 -9
-10 -9 0 -16 5 -16 10 0 6 4 10 9 10 6 0 13 -4 16 -10z m187 -37 c-10 -28 -10
-28 -11 12 -1 28 2 36 10 28 8 -8 8 -19 1 -40z m-372 8 c0 -11 -4 -23 -10 -26
-6 -4 -10 5 -10 19 0 14 5 26 10 26 6 0 10 -9 10 -19z m445 -36 c1 -28 0 -36
-2 -20 -5 26 -6 28 -13 10 -7 -18 -8 -19 -15 -2 -9 22 3 69 17 65 6 -2 12 -26
13 -53z m-54 -46 c-9 -16 -22 -29 -28 -29 -18 0 -16 19 2 26 8 4 15 14 15 23
0 23 12 34 21 20 4 -6 -1 -24 -10 -40z m-181 -68 c0 -21 -22 -33 -45 -25 -31
12 -15 44 22 44 16 0 23 -6 23 -19z m220 -25 c0 -3 -4 -8 -10 -11 -5 -3 -10
-1 -10 4 0 6 5 11 10 11 6 0 10 -2 10 -4z"/>
<path d="M2227 3028 c2 -33 0 -37 -5 -18 -5 14 -16 26 -27 27 -11 2 -15 0 -8
-3 14 -6 -20 -44 -39 -44 -8 1 -5 7 6 15 10 8 16 21 13 29 -8 20 -30 12 -42
-16 -6 -12 -16 -24 -24 -26 -10 -3 -12 4 -9 32 3 28 0 36 -12 36 -11 0 -15
-10 -15 -39 l0 -39 107 0 c100 1 107 2 98 19 -7 12 -7 20 0 24 6 3 15 -6 20
-21 13 -33 23 -26 14 10 -4 19 -13 26 -30 26 -14 0 -27 7 -30 15 -11 28 -20
15 -17 -27z"/>
<path d="M4957 3030 c4 -26 2 -40 -6 -40 -6 0 -11 11 -11 24 0 22 -4 25 -40
24 -30 0 -43 -6 -55 -24 -20 -31 -37 -22 -30 17 4 19 1 29 -7 29 -8 0 -13 -14
-13 -39 l0 -39 93 0 c69 -1 91 2 85 11 -4 7 1 6 11 -2 16 -13 17 -12 11 12 -5
17 -3 27 4 27 6 0 13 -11 17 -25 3 -14 10 -25 15 -25 12 0 11 27 -1 35 -6 4
-8 11 -5 16 4 5 -5 9 -19 9 -13 0 -27 -6 -29 -12 -3 -7 -6 -1 -6 15 -1 15 -5
27 -10 27 -5 0 -7 -18 -4 -40z m-50 -20 c-14 -11 -29 -20 -34 -20 -10 1 39 39
51 40 5 0 -3 -9 -17 -20z"/>
<path d="M2335 3020 c0 -25 5 -40 13 -40 6 0 12 8 12 18 1 15 2 15 10 1 6 -11
27 -16 74 -17 37 -1 66 3 66 8 0 5 -7 7 -16 3 -14 -5 -16 0 -12 30 3 29 1 37
-12 37 -12 0 -15 -8 -12 -33 3 -28 1 -33 -20 -34 -22 -2 -22 -1 -4 13 15 10
17 17 9 25 -17 17 -43 3 -43 -21 0 -12 -4 -18 -10 -15 -6 4 -9 19 -8 33 3 22
-1 28 -22 30 -23 3 -25 0 -25 -38z"/>
<path d="M2519 3023 c5 -31 11 -38 31 -40 17 -1 19 0 7 4 -15 4 -18 12 -15 39
3 26 0 34 -12 34 -14 0 -16 -7 -11 -37z"/>
<path d="M2568 3030 c2 -16 5 -30 7 -30 2 0 5 14 7 30 3 19 0 30 -7 30 -7 0
-10 -11 -7 -30z"/>
<path d="M5065 3050 c3 -5 -1 -10 -9 -10 -9 0 -16 -4 -16 -10 0 -5 7 -7 16 -3
14 5 16 2 10 -20 -5 -20 -3 -27 8 -27 10 0 13 6 10 18 -5 15 -4 15 8 1 7 -9
29 -16 48 -16 19 -1 30 1 23 4 -10 3 -10 9 -1 23 7 11 9 22 6 26 -13 12 -38
-5 -38 -27 0 -18 -3 -19 -15 -9 -10 9 -12 17 -5 30 5 9 6 20 3 24 -11 10 -55
7 -48 -4z m35 -10 c0 -5 -4 -10 -10 -10 -5 0 -10 5 -10 10 0 6 5 10 10 10 6 0
10 -4 10 -10z"/>
<path d="M5185 3020 c0 -37 2 -40 28 -40 15 0 27 5 27 11 0 6 -9 8 -21 4 -20
-7 -21 -4 -17 29 2 21 0 36 -7 36 -5 0 -10 -18 -10 -40z"/>
<path d="M5249 3023 c5 -32 11 -38 31 -40 24 -1 24 -1 2 4 -21 4 -23 9 -20 39
2 21 0 34 -7 34 -8 0 -10 -13 -6 -37z"/>
<path d="M5288 3030 c2 -16 5 -30 7 -30 2 0 5 14 7 30 3 19 0 30 -7 30 -7 0
-10 -11 -7 -30z"/>
<path d="M2590 2991 c0 -6 5 -13 10 -16 6 -3 10 1 10 9 0 9 -4 16 -10 16 -5 0
-10 -4 -10 -9z"/>
<path d="M3217 2985 c-19 -18 -23 -140 -5 -129 10 5 10 4 1 -6 -10 -11 -9 -16
5 -27 16 -12 16 -13 0 -7 -16 5 -18 -1 -18 -49 0 -93 -36 -87 505 -87 l474 0
15 22 c9 13 16 43 16 70 0 41 -3 47 -17 42 -16 -5 -16 -4 0 6 15 10 18 24 16
82 -1 38 -7 75 -14 81 -18 18 -505 22 -505 5 0 -9 -3 -8 -10 2 -7 10 -12 12
-17 4 -5 -6 -25 -14 -47 -17 -46 -7 -41 2 6 13 21 5 -19 8 -105 8 -75 0 -140
-4 -143 -9 -3 -5 -15 -9 -27 -8 -20 1 -20 2 3 9 17 5 2 8 -47 8 -49 1 -77 -3
-86 -13z m203 1 c0 -11 -19 -15 -25 -6 -3 5 1 10 9 10 9 0 16 -2 16 -4z m427
-2 c-3 -3 -12 -4 -19 -1 -8 3 -5 6 6 6 11 1 17 -2 13 -5z m163 2 c0 -3 -4 -8
-10 -11 -5 -3 -10 -1 -10 4 0 6 5 11 10 11 6 0 10 -2 10 -4z m-573 -27 c-2
-19 3 -21 82 -22 73 -2 85 0 97 18 8 11 14 14 14 7 0 -6 10 -12 23 -12 33 0
46 -12 49 -46 2 -26 6 -31 28 -29 40 3 41 4 31 24 -12 21 10 48 28 37 5 -4 11
2 13 11 2 10 4 -3 4 -29 -1 -38 -5 -48 -18 -48 -12 0 -15 -6 -11 -22 3 -14 1
-18 -4 -12 -4 6 -26 11 -48 11 -32 0 -40 4 -38 18 1 12 -2 14 -9 7 -6 -6 -17
-8 -26 -5 -11 5 -13 2 -7 -8 6 -11 5 -12 -6 -1 -7 6 -28 12 -47 12 -30 0 -33
2 -22 15 7 8 9 15 5 15 -4 0 -14 -8 -21 -17 -13 -17 -15 -17 -30 2 -14 17 -16
17 -11 2 6 -16 -1 -17 -93 -16 -64 2 -98 6 -97 13 1 6 -4 10 -11 8 -23 -5 27
52 51 59 13 3 29 0 40 -9 15 -14 17 -13 17 5 0 18 8 33 17 33 1 0 2 -9 0 -21z
m510 -21 c61 -3 95 7 113 33 3 4 13 1 23 -6 12 -8 14 -15 8 -20 -6 -3 -11 -1
-11 4 0 6 -4 11 -10 11 -16 0 0 -28 20 -33 13 -3 20 1 23 17 4 19 4 19 5 1 2
-24 -25 -62 -35 -51 -4 4 -1 11 7 16 12 8 12 10 -4 10 -14 0 -17 -5 -12 -25 6
-25 6 -25 -61 -26 -38 0 -62 -3 -55 -6 23 -9 12 -23 -19 -23 -24 0 -30 4 -25
15 4 12 -4 15 -42 15 l-47 0 -1 45 c-1 47 18 67 35 37 9 -15 11 -14 12 8 2 22
2 23 6 3 4 -19 12 -22 70 -25z m-460 -111 c-1 -8 15 -13 46 -15 41 -3 48 -1
45 14 -2 9 4 19 12 21 13 4 13 3 0 -6 -12 -8 -8 -11 18 -11 22 0 32 -5 32 -16
0 -8 5 -12 10 -9 6 4 8 10 6 14 -3 4 12 8 32 9 20 2 38 5 40 7 3 2 17 -2 33
-10 31 -16 164 -21 155 -6 -4 5 2 8 11 6 10 -2 23 -4 29 -4 10 -1 14 -14 15
-56 0 -11 5 -23 12 -28 8 -6 6 -7 -5 -3 -10 3 -20 1 -23 -3 -8 -14 -44 -20
-39 -7 4 9 -29 13 -128 13 -117 0 -133 2 -132 17 1 9 -2 16 -7 16 -5 0 -9 -6
-9 -14 0 -19 -14 -22 -92 -20 -38 0 -68 -3 -68 -7 0 -5 5 -9 11 -9 5 0 7 -5 3
-11 -5 -8 -9 -8 -14 1 -4 6 -19 9 -36 5 -21 -4 -24 -3 -10 3 14 6 16 11 8 16
-7 4 -12 23 -12 42 0 27 5 37 25 46 23 10 23 12 7 25 -15 13 -15 13 5 3 13 -6
22 -16 20 -23z m-220 -113 c-3 -3 -12 -4 -19 -1 -8 3 -5 6 6 6 11 1 17 -2 13
-5z m720 0 c-3 -3 -12 -4 -19 -1 -8 3 -5 6 6 6 11 1 17 -2 13 -5z m140 0 c-3
-3 -12 -4 -19 -1 -8 3 -5 6 6 6 11 1 17 -2 13 -5z m-162 -22 c-3 -3 -11 0 -18
7 -9 10 -8 11 6 5 10 -3 15 -9 12 -12z m-677 1 c-10 -2 -28 -2 -40 0 -13 2 -5
4 17 4 22 1 32 -1 23 -4z m115 0 c-18 -2 -48 -2 -65 0 -18 2 -4 4 32 4 36 0
50 -2 33 -4z m410 0 c-56 -2 -151 -2 -210 0 -59 1 -13 3 102 3 116 0 164 -2
108 -3z m285 0 c-21 -2 -55 -2 -75 0 -21 2 -4 4 37 4 41 0 58 -2 38 -4z"/>
<path d="M3653 2904 c0 -17 2 -22 7 -13 5 6 6 18 3 26 -8 19 -10 16 -10 -13z"/>
<path d="M3360 2904 c0 -14 3 -14 15 -4 8 7 15 14 15 16 0 2 -7 4 -15 4 -8 0
-15 -7 -15 -16z"/>
<path d="M3471 2764 c0 -11 3 -14 6 -6 3 7 2 16 -1 19 -3 4 -6 -2 -5 -13z"/>
<path d="M5320 2990 c0 -5 5 -10 11 -10 5 0 7 5 4 10 -3 6 -8 10 -11 10 -2 0
-4 -4 -4 -10z"/>
<path d="M5941 2992 c-15 -5 -15 -162 0 -162 6 0 8 7 4 18 -4 12 -3 14 5 6 12
-12 3 -47 -11 -38 -14 8 -11 -110 3 -124 19 -19 947 -17 973 2 17 12 18 16 5
32 -8 10 -10 15 -3 11 8 -5 12 11 15 53 3 65 1 83 -11 75 -4 -2 -4 21 1 51 6
40 5 60 -3 70 -16 19 -84 18 -103 -2 -15 -14 -20 -11 -17 9 1 5 -46 7 -104 6
-94 -2 -105 -4 -105 -21 0 -10 5 -18 11 -18 8 0 8 -4 2 -12 -6 -8 -6 -24 -2
-38 9 -25 9 -25 5 2 l-3 28 75 -2 c66 -1 75 -4 80 -22 5 -18 6 -18 12 -2 3 10
10 17 14 16 5 -1 12 4 17 11 4 7 17 13 28 14 11 1 18 -2 15 -6 -2 -4 0 -10 6
-14 6 -4 8 -11 4 -16 -3 -5 -10 -7 -15 -4 -5 4 -9 2 -9 -3 0 -6 7 -13 16 -16
9 -4 14 -10 10 -14 -11 -10 -88 -11 -108 0 -12 6 -18 5 -18 -2 0 -6 -4 -9 -9
-5 -6 3 -14 -2 -19 -12 -9 -15 -12 -15 -28 -3 -9 8 -38 15 -63 16 -47 0 -96
12 -88 21 3 2 15 0 26 -7 14 -7 21 -7 21 0 0 5 -6 10 -12 10 -9 0 -8 4 2 10
12 8 12 10 -5 10 -16 0 -17 2 -5 9 8 6 17 8 20 6 3 -2 6 12 7 31 l3 34 -248
-2 c-136 -2 -256 -7 -267 -11 -16 -7 -17 -7 -5 2 12 9 1 11 -47 9 -34 -1 -67
-4 -72 -6z m74 -12 c-11 -5 -16 -9 -11 -9 6 -1 2 -7 -9 -14 -12 -10 -14 -16
-7 -21 7 -4 12 -2 12 3 0 6 9 11 20 11 11 0 20 6 20 13 0 8 3 8 9 -2 13 -20 3
-41 -16 -34 -11 4 -14 1 -12 -12 6 -28 26 -29 33 -1 6 24 8 25 93 22 54 -1 88
-6 90 -13 6 -17 -16 -55 -28 -48 -5 4 -9 0 -10 -7 0 -7 -4 -4 -9 7 -8 19 -9
19 -9 -3 -1 -20 -3 -22 -15 -9 -8 8 -25 13 -38 12 -13 -1 -30 -3 -38 -4 -13
-1 -13 -2 0 -11 9 -6 10 -10 3 -10 -7 0 -17 8 -22 18 -7 11 -10 13 -11 3 0
-11 -3 -11 -15 -1 -12 10 -15 10 -15 0 0 -22 -32 12 -51 55 -10 22 -19 33 -19
25 0 -13 -1 -13 -10 0 -12 18 -14 40 -2 25 4 -5 15 -11 26 -13 14 -3 17 1 13
12 -5 12 0 16 21 15 24 0 25 -1 7 -9z m258 3 c-7 -2 -19 -2 -25 0 -7 3 -2 5
12 5 14 0 19 -2 13 -5z m74 1 c-3 -3 -12 -4 -19 -1 -8 3 -5 6 6 6 11 1 17 -2
13 -5z m113 -4 c0 -5 -7 -7 -15 -4 -8 4 -15 8 -15 10 0 2 7 4 15 4 8 0 15 -4
15 -10z m-157 -7 c-25 -9 -13 -23 20 -23 43 0 58 -15 47 -46 -8 -21 -7 -24 13
-24 12 0 29 5 37 10 13 9 13 12 -3 24 -16 12 -15 15 18 30 29 14 38 15 48 4
14 -15 19 -51 6 -43 -4 3 -7 -4 -6 -15 1 -11 6 -20 11 -20 5 0 7 -3 3 -6 -3
-3 -12 -2 -19 2 -19 12 -142 4 -150 -10 -5 -7 -8 -5 -8 6 0 13 -7 17 -25 16
-28 -3 -31 -8 -13 -26 9 -9 9 -12 0 -12 -6 0 -16 10 -23 21 -9 17 -13 19 -20
8 -5 -8 -9 -9 -9 -4 0 6 7 21 16 33 14 20 14 24 -1 38 -12 12 -13 20 -5 28 8
8 13 7 19 -2 6 -10 10 -10 21 3 7 8 18 15 24 14 7 0 6 -2 -1 -6z m582 -42 c3
-5 1 -12 -5 -16 -5 -3 -10 1 -10 9 0 18 6 21 15 7z m-905 -46 c14 -19 14 -19
-2 -6 -10 7 -18 18 -18 24 0 6 1 8 3 6 1 -2 9 -13 17 -24z m905 6 c3 -5 1 -12
-5 -16 -5 -3 -10 1 -10 9 0 18 6 21 15 7z m-345 -37 c0 -22 -16 -17 -17 6 -1
11 2 18 8 15 5 -4 9 -13 9 -21z m-75 6 c-3 -5 -1 -10 5 -10 6 0 8 -5 4 -11 -4
-8 0 -9 15 -4 15 5 21 2 21 -10 0 -12 4 -14 18 -6 13 7 22 7 30 -1 6 -6 48
-10 105 -9 94 2 95 2 99 -23 6 -29 -8 -45 -34 -41 -10 2 -20 -1 -24 -6 -3 -5
-11 -9 -17 -9 -8 0 -8 3 -2 8 16 11 14 42 -2 42 -9 0 -13 -6 -9 -15 4 -12 -3
-15 -29 -15 -21 0 -35 -5 -35 -12 0 -7 -8 -1 -17 12 -10 14 -16 30 -15 35 2 6
-2 4 -10 -3 -11 -11 -10 -14 2 -22 13 -8 12 -10 -2 -10 -10 0 -21 0 -24 1 -4
0 -11 -5 -16 -13 -8 -10 -9 -10 -5 2 2 8 1 24 -4 35 -7 19 -8 19 -8 -2 -1 -22
-37 -50 -49 -39 -3 3 -1 6 5 6 6 0 7 15 4 37 -5 32 -11 39 -36 44 l-30 7 28 1
c24 1 27 4 22 21 -4 12 -2 20 5 20 6 0 8 -4 5 -10z m186 -13 c-10 -9 -11 -8
-5 6 3 10 9 15 12 12 3 -3 0 -11 -7 -18z m-227 4 c3 -4 -6 -6 -19 -3 -14 2
-25 6 -25 8 0 8 39 4 44 -5z m-349 -41 c-19 -21 -19 -46 1 -54 8 -3 12 -2 9 4
-3 5 4 14 15 20 11 6 20 16 20 22 0 6 -6 5 -16 -3 -14 -12 -16 -11 -12 6 2 12
10 19 21 17 9 -2 17 2 17 8 0 5 10 10 23 9 21 0 21 -1 2 -9 -19 -8 -19 -9 2
-9 12 -1 27 7 33 17 11 16 11 16 6 0 -3 -10 -1 -18 5 -18 6 0 7 -5 4 -10 -4
-6 -12 -7 -18 -3 -7 4 -5 -1 2 -11 14 -17 15 -17 22 2 5 12 21 22 44 26 20 4
44 9 53 12 9 2 0 -4 -21 -14 -28 -14 -34 -21 -23 -25 9 -4 16 -14 16 -22 0 -9
4 -14 8 -11 4 2 9 -5 9 -16 2 -18 1 -19 -10 -4 -11 14 -15 14 -40 1 -15 -8
-25 -10 -22 -5 4 6 1 10 -5 10 -6 0 -8 5 -5 10 11 18 -8 11 -33 -12 -14 -13
-22 -17 -18 -10 4 7 1 12 -9 12 -9 0 -14 -4 -11 -8 2 -4 -5 -9 -17 -9 -17 -2
-19 0 -7 7 13 8 12 10 -2 10 -10 0 -18 -4 -18 -10 0 -5 -15 -9 -34 -7 -24 1
-32 6 -28 16 3 9 1 12 -5 8 -13 -8 -5 31 10 51 5 6 6 12 3 12 -4 0 -1 6 6 14
9 10 17 11 26 4 10 -9 9 -14 -3 -28z m308 8 c-12 -4 -3 -7 25 -7 35 -1 42 -4
42 -21 0 -11 0 -23 1 -27 0 -5 -9 -14 -21 -22 -12 -8 -20 -10 -19 -5 2 5 0 19
-5 32 -9 28 -36 30 -31 2 3 -18 -1 -22 -21 -19 -4 0 -10 -5 -14 -11 -5 -7 -12
1 -19 22 -10 30 -9 31 4 14 8 -11 18 -17 21 -13 4 4 1 14 -6 22 -10 12 -10 19
-2 27 7 7 12 17 12 23 0 5 -5 3 -10 -5 -5 -8 -10 -10 -10 -4 0 19 11 22 41 11
25 -10 27 -13 12 -19z m427 12 c-9 -5 -9 -9 -1 -14 6 -4 17 -4 24 0 9 6 9 4
-1 -8 -7 -9 -12 -20 -10 -24 5 -18 -23 -54 -42 -54 -23 0 -27 18 -5 26 8 4 15
15 15 25 0 11 -7 22 -15 25 -27 11 -17 33 16 32 17 -1 25 -4 19 -8z m-500 -24
c0 -2 -7 -6 -15 -10 -8 -3 -15 -1 -15 4 0 6 7 10 15 10 8 0 15 -2 15 -4z
m-363 -88 c-3 -8 -6 -5 -6 6 -1 11 2 17 5 13 3 -3 4 -12 1 -19z m320 16 c-3
-3 -12 -4 -19 -1 -8 3 -5 6 6 6 11 1 17 -2 13 -5z m-274 -21 c-7 -2 -19 -2
-25 0 -7 3 -2 5 12 5 14 0 19 -2 13 -5z m864 1 c-3 -3 -12 -4 -19 -1 -8 3 -5
6 6 6 11 1 17 -2 13 -5z m-844 -21 c-13 -2 -33 -2 -45 0 -13 2 -3 4 22 4 25 0
35 -2 23 -4z m640 0 c-111 -2 -295 -2 -410 0 -114 1 -23 2 202 2 226 0 319 -1
208 -2z"/>
<path d="M6330 2911 c0 -25 6 -27 13 -6 4 8 2 17 -3 20 -6 4 -10 -3 -10 -14z"/>
<path d="M6425 2920 c4 -6 11 -8 16 -5 14 9 11 15 -7 15 -8 0 -12 -5 -9 -10z"/>
<path d="M6285 2900 c-3 -5 -1 -10 4 -10 6 0 11 5 11 10 0 6 -2 10 -4 10 -3 0
-8 -4 -11 -10z"/>
<path d="M6130 2768 c0 -4 4 -8 9 -8 6 0 12 4 15 8 3 5 -1 9 -9 9 -8 0 -15 -4
-15 -9z"/>
<path d="M7520 2937 l0 -45 85 2 c47 1 88 5 91 9 3 3 13 3 22 -1 15 -5 15 -4
3 12 -10 12 -11 20 -3 28 8 8 14 4 22 -17 13 -34 24 -28 14 9 -4 19 -13 26
-30 26 -13 0 -24 5 -24 10 0 6 -6 10 -13 10 -9 0 -12 -12 -10 -37 2 -31 1 -33
-5 -13 -8 25 -42 42 -42 21 0 -6 6 -11 12 -11 7 0 2 -7 -10 -16 -12 -8 -28
-13 -35 -11 -7 3 -4 6 6 6 12 1 17 7 15 18 -4 24 -27 28 -35 6 -15 -42 -46
-43 -41 -1 2 19 -2 33 -9 35 -9 3 -13 -9 -13 -40z"/>
<path d="M7790 2945 c0 -19 0 -38 -1 -42 0 -4 4 -9 10 -11 6 -2 11 4 11 13 0
15 3 15 16 5 8 -8 42 -15 75 -17 46 -2 59 0 59 12 0 9 -6 12 -15 9 -12 -5 -15
2 -15 31 0 25 -4 35 -12 32 -8 -2 -12 -16 -10 -35 3 -28 1 -32 -20 -31 -17 1
-18 3 -5 6 19 5 23 28 7 38 -15 9 -42 -15 -35 -32 3 -9 0 -13 -7 -10 -7 2 -12
15 -10 27 2 24 -12 40 -35 40 -8 0 -13 -14 -13 -35z"/>
<path d="M7970 2948 c0 -54 44 -82 55 -35 10 46 10 56 0 54 -5 -1 -8 -14 -6
-29 2 -21 -2 -28 -14 -28 -13 0 -16 8 -13 32 2 19 -2 33 -9 35 -9 3 -13 -7
-13 -29z"/>
<path d="M7765 2950 c3 -5 8 -10 11 -10 2 0 4 5 4 10 0 6 -5 10 -11 10 -5 0
-7 -4 -4 -10z"/>
<path d="M2366 2923 c6 -24 5 -26 -7 -16 -8 6 -34 11 -59 10 -38 -2 -45 -5
-48 -25 -4 -26 21 -40 41 -23 10 8 17 7 25 -1 8 -8 15 -8 27 2 10 8 15 9 15 1
0 -7 22 -11 59 -11 42 0 60 -4 64 -14 7 -16 35 -15 46 2 3 6 31 12 60 14 38 2
57 8 65 21 15 23 -3 51 -35 55 -21 3 -24 -1 -24 -30 0 -24 -5 -33 -20 -36 -17
-4 -18 -2 -6 12 16 19 7 51 -11 40 -7 -4 -28 -7 -46 -6 -30 3 -34 0 -29 -18 3
-11 1 -23 -4 -26 -5 -3 -9 6 -9 20 0 21 -5 26 -26 26 -18 0 -24 -4 -21 -13 3
-8 1 -20 -4 -28 -6 -10 -9 -7 -9 14 0 15 -5 27 -11 27 -6 0 -8 -8 -4 -19 3
-11 1 -22 -5 -26 -6 -4 -10 9 -10 34 0 23 -5 41 -10 41 -6 0 -8 -11 -4 -27z
m269 -23 c0 -13 -6 -25 -12 -27 -9 -3 -13 6 -13 27 0 21 4 30 13 28 6 -3 12
-15 12 -28z m-352 -16 c-4 -10 -9 -12 -15 -6 -12 12 -1 35 12 27 5 -3 6 -13 3
-21z m57 6 c0 -11 -4 -20 -10 -20 -5 0 -10 9 -10 20 0 11 5 20 10 20 6 0 10
-9 10 -20z m113 5 c4 -8 2 -17 -3 -20 -6 -4 -10 3 -10 14 0 25 6 27 13 6z m57
11 c0 -3 -4 -8 -10 -11 -5 -3 -10 -1 -10 4 0 6 5 11 10 11 6 0 10 -2 10 -4z
m50 -6 c0 -13 -25 -30 -44 -29 -12 0 -15 3 -8 6 6 2 12 10 12 17 0 6 9 12 20
12 11 0 20 -3 20 -6z m-43 -46 c-3 -3 -12 -4 -19 -1 -8 3 -5 6 6 6 11 1 17 -2
13 -5z"/>
<path d="M5035 2905 l-1 -45 57 0 c41 0 58 -4 63 -15 7 -19 20 -19 39 -1 8 8
38 16 67 18 37 2 56 8 64 21 15 23 -3 51 -36 55 -22 3 -24 0 -20 -33 4 -31 2
-35 -19 -35 -18 0 -20 3 -11 12 25 25 13 37 -35 35 -43 -2 -48 -4 -46 -24 2
-13 -2 -23 -7 -23 -6 0 -10 11 -10 25 0 20 -5 25 -25 25 -22 0 -25 -3 -19 -25
4 -15 2 -25 -5 -25 -6 0 -11 11 -11 25 0 14 -4 25 -9 25 -5 0 -7 -8 -4 -19 3
-10 0 -22 -6 -25 -7 -5 -11 7 -11 33 0 23 -3 41 -7 41 -5 0 -8 -20 -8 -45z
m270 -3 c0 -31 -19 -28 -23 4 -3 18 0 25 10 22 7 -3 13 -14 13 -26z m-182 -7
c4 -8 2 -17 -3 -20 -6 -4 -10 3 -10 14 0 25 6 27 13 6z m107 5 c0 -13 -25 -30
-44 -29 -12 0 -15 3 -8 6 6 2 12 10 12 17 0 6 9 12 20 12 11 0 20 -3 20 -6z
m-43 -46 c-3 -3 -12 -4 -19 -1 -8 3 -5 6 6 6 11 1 17 -2 13 -5z"/>
<path d="M2004 2918 c17 -25 22 -53 7 -43 -5 3 -12 1 -16 -5 -3 -5 3 -10 14
-10 11 0 22 4 25 9 9 15 -15 71 -31 71 -12 0 -12 -3 1 -22z"/>
<path d="M2049 2928 c0 -7 -2 -25 -3 -40 -1 -19 3 -28 14 -28 11 0 15 11 15
40 0 25 -5 40 -12 40 -7 0 -13 -6 -14 -12z"/>
<path d="M2198 2904 c3 -28 1 -35 -9 -32 -8 3 -14 15 -13 27 0 14 -5 21 -18
21 -21 0 -22 -1 -6 -35 8 -18 19 -25 40 -25 17 0 27 4 23 10 -4 6 4 19 16 29
26 20 18 41 -15 41 -19 0 -22 -4 -18 -36z m32 16 c0 -5 -4 -10 -10 -10 -5 0
-10 5 -10 10 0 6 5 10 10 10 6 0 10 -4 10 -10z"/>
<path d="M4669 2926 c8 -9 8 -22 2 -38 -9 -24 -8 -25 32 -25 l42 -1 0 39 c0
52 -25 53 -26 2 l-1 -38 -15 38 c-9 20 -22 37 -31 37 -11 0 -12 -3 -3 -14z
m18 -48 c-3 -8 -6 -5 -6 6 -1 11 2 17 5 13 3 -3 4 -12 1 -19z"/>
<path d="M4868 2904 c3 -28 1 -35 -9 -32 -8 3 -14 15 -13 26 0 18 -5 21 -42
20 -34 0 -43 -5 -48 -21 -8 -32 1 -37 70 -37 48 0 65 3 62 12 -3 7 4 20 15 29
24 19 15 39 -17 39 -19 0 -22 -4 -18 -36z m32 16 c0 -5 -4 -10 -10 -10 -5 0
-10 5 -10 10 0 6 5 10 10 10 6 0 10 -4 10 -10z m-81 -28 c8 -14 6 -19 -5 -19
-7 0 -14 9 -14 19 0 10 2 18 5 18 2 0 9 -8 14 -18z"/>
<path d="M2087 2899 c-3 -12 -4 -26 -1 -31 8 -12 64 -10 64 3 0 5 -4 8 -9 4
-5 -3 -11 5 -13 17 -4 31 -34 35 -41 7z"/>
<path d="M4924 2905 c-13 -33 24 -63 41 -35 5 8 11 7 21 -1 12 -10 18 -9 31 4
9 8 13 23 10 31 -9 22 -47 21 -47 -1 -1 -17 -1 -17 -11 0 -12 21 -38 22 -45 2z
m31 -25 c-6 -9 -9 -9 -16 1 -10 17 0 34 13 21 6 -6 7 -16 3 -22z m55 10 c0
-11 -4 -20 -10 -20 -5 0 -10 9 -10 20 0 11 5 20 10 20 6 0 10 -9 10 -20z"/>
<path d="M5408 2890 c-4 -23 -1 -30 12 -30 13 0 16 7 12 30 -2 17 -8 30 -12
30 -4 0 -10 -13 -12 -30z"/>
<path d="M8045 2900 c3 -5 8 -10 11 -10 2 0 4 5 4 10 0 6 -5 10 -11 10 -5 0
-7 -4 -4 -10z"/>
<path d="M2670 2870 c0 -5 5 -10 11 -10 5 0 7 5 4 10 -3 6 -8 10 -11 10 -2 0
-4 -4 -4 -10z"/>
<path d="M5450 2870 c0 -5 5 -10 10 -10 6 0 10 5 10 10 0 6 -4 10 -10 10 -5 0
-10 -4 -10 -10z"/>
<path d="M1765 2860 c4 -6 -46 -11 -132 -13 l-138 -3 137 -2 c117 -2 137 -4
132 -17 -4 -8 -4 -15 -1 -15 13 0 57 24 57 30 0 6 -44 30 -56 30 -3 0 -2 -4 1
-10z"/>
<path d="M3125 2860 c4 -6 -46 -11 -132 -13 l-138 -3 139 -2 c118 -2 137 -4
132 -17 -7 -18 -4 -18 29 -3 30 13 32 24 6 38 -25 13 -44 13 -36 0z"/>
<path d="M4490 2860 c0 -5 -57 -11 -137 -13 l-138 -3 138 -2 c114 -2 137 -5
137 -17 0 -19 5 -19 36 2 l26 16 -24 13 c-28 16 -38 17 -38 4z"/>
<path d="M5850 2860 c0 -5 -56 -11 -132 -13 l-133 -3 133 -2 c110 -2 132 -5
132 -17 0 -19 10 -19 39 1 l24 17 -24 13 c-29 16 -39 17 -39 4z"/>
<path d="M7215 2860 c4 -6 -46 -11 -132 -13 l-138 -3 139 -2 c118 -2 137 -4
132 -17 -7 -18 -4 -18 29 -3 32 14 32 22 0 36 -32 15 -38 15 -30 2z"/>
<path d="M5335 2850 c-4 -6 8 -10 30 -10 22 0 34 4 30 10 -3 6 -17 10 -30 10
-13 0 -27 -4 -30 -10z"/>
<path d="M7386 2838 c3 -13 11 -24 15 -26 5 -2 9 -8 9 -13 0 -6 -4 -8 -9 -4
-5 3 -12 1 -15 -4 -10 -16 10 -21 29 -7 16 12 16 14 1 44 -19 37 -41 44 -30
10z"/>
<path d="M7446 2852 c-10 -16 -15 -72 -6 -77 15 -9 25 14 20 50 -3 27 -8 36
-14 27z"/>
<path d="M7587 2825 c6 -40 -10 -48 -28 -14 -8 15 -8 19 0 15 6 -4 11 -3 11 3
0 6 -20 10 -45 9 -25 0 -45 -4 -45 -9 0 -5 6 -9 13 -9 7 0 5 -5 -5 -11 -27
-15 -12 -36 23 -31 19 3 26 7 19 12 -7 4 -10 16 -8 26 3 16 7 14 20 -12 12
-22 23 -30 40 -29 15 1 22 7 20 19 -2 10 4 16 18 16 11 0 20 -6 20 -14 0 -18
25 -27 38 -14 7 7 17 6 32 -2 19 -10 22 -9 27 11 6 20 7 21 13 5 5 -15 18 -19
59 -20 l52 -1 -3 30 c-2 22 -9 31 -25 33 -17 3 -22 -3 -26 -25 l-4 -28 -2 28
c0 15 -6 27 -12 27 -6 0 -9 -6 -6 -13 3 -8 1 -20 -4 -28 -6 -10 -9 -2 -9 24 0
20 -4 37 -10 37 -5 0 -10 -10 -10 -21 0 -16 -3 -19 -12 -12 -17 14 -79 13 -98
-1 -8 -5 -12 -6 -8 -2 11 13 -11 36 -33 36 -15 0 -17 -6 -12 -35z m33 5 c0 -5
-4 -10 -10 -10 -5 0 -10 5 -10 10 0 6 5 10 10 10 6 0 10 -4 10 -10z m46 -37
c-11 -11 -19 6 -11 24 8 17 8 17 12 0 3 -10 2 -21 -1 -24z m64 17 c0 -11 -4
-20 -10 -20 -5 0 -10 9 -10 20 0 11 5 20 10 20 6 0 10 -9 10 -20z m107 -12
c-3 -8 -6 -5 -6 6 -1 11 2 17 5 13 3 -3 4 -12 1 -19z"/>
<path d="M7985 2821 c0 -29 5 -41 18 -45 40 -10 64 54 28 74 -36 19 -47 12
-46 -29z m40 -6 c0 -10 -6 -20 -12 -22 -8 -3 -13 5 -13 22 0 17 5 25 13 23 6
-3 12 -13 12 -23z"/>
<path d="M7877 2833 c-2 -5 -5 -25 -5 -45 -1 -32 2 -38 19 -38 11 0 22 7 26
15 3 9 15 15 26 13 15 -2 21 3 24 25 3 18 -1 29 -12 34 -18 6 -43 -12 -31 -24
4 -4 11 -1 15 6 6 8 11 9 15 3 7 -12 -33 -44 -45 -36 -5 2 -4 16 1 29 8 21 7
25 -10 25 -10 0 -21 -3 -23 -7z m30 -69 c-3 -3 -12 -4 -19 -1 -8 3 -5 6 6 6
11 1 17 -2 13 -5z"/>
<path d="M8127 2833 c-14 -13 -6 -25 8 -13 12 10 15 9 15 -6 0 -13 3 -15 11
-7 6 6 8 16 5 22 -8 12 -29 15 -39 4z"/>
<path d="M2068 2775 c2 -25 8 -45 13 -45 5 0 9 5 9 11 0 6 5 7 13 2 6 -4 29
-8 50 -9 33 -1 37 1 37 22 0 15 6 24 16 24 12 0 15 -6 10 -25 -6 -23 -3 -25
24 -25 28 0 30 2 24 28 -10 40 -11 41 -54 40 -30 0 -40 -4 -40 -17 -1 -14 -2
-14 -11 2 -7 11 -17 16 -29 12 -10 -3 -25 1 -33 10 -25 25 -32 18 -29 -30z
m52 -11 c0 -8 -4 -12 -10 -9 -5 3 -10 10 -10 16 0 5 5 9 10 9 6 0 10 -7 10
-16z m130 1 c0 -8 -4 -15 -10 -15 -5 0 -10 7 -10 15 0 8 5 15 10 15 6 0 10 -7
10 -15z m-87 -12 c-7 -2 -19 -2 -25 0 -7 3 -2 5 12 5 14 0 19 -2 13 -5z"/>
<path d="M2328 2775 c2 -25 7 -43 11 -41 8 6 1 86 -8 86 -3 0 -5 -20 -3 -45z"/>
<path d="M4796 2778 c1 -24 7 -44 14 -46 8 -3 10 0 5 8 -6 9 -4 11 6 5 17 -11
51 -14 63 -7 5 3 1 9 -10 13 -17 7 -18 8 -1 8 12 1 17 7 15 18 -5 28 -26 26
-43 -4 l-16 -28 6 28 c5 27 -9 38 -18 15 -3 -7 -6 -3 -6 10 -1 12 -4 22 -8 22
-5 0 -7 -19 -7 -42z"/>
<path d="M5048 2775 c2 -25 8 -45 13 -45 5 0 9 20 9 45 0 29 -4 45 -13 45 -8
0 -11 -14 -9 -45z"/>
<path d="M2280 2785 c-14 -17 -4 -55 16 -55 17 0 19 16 2 23 -8 3 -6 6 5 6 19
1 20 3 11 25 -8 20 -18 20 -34 1z"/>
<path d="M2385 2791 c-3 -6 1 -11 11 -11 13 0 14 -3 4 -15 -9 -10 -9 -15 -1
-15 21 0 11 -20 -11 -21 -18 -1 -19 -2 -5 -6 26 -7 50 4 41 19 -5 7 -8 22 -9
32 0 22 -20 33 -30 17z"/>
<path d="M2460 2794 c0 -11 24 -64 29 -64 4 0 7 15 7 33 0 25 -4 33 -18 33
-10 0 -18 -1 -18 -2z"/>
<path d="M2540 2791 c0 -6 7 -11 16 -11 14 0 14 -3 4 -15 -9 -10 -9 -15 -1
-15 20 0 11 -19 -11 -23 -20 -4 -19 -4 5 -6 15 0 27 3 27 9 0 5 7 7 15 4 8 -4
15 -1 15 5 0 6 -8 11 -18 11 -13 0 -18 7 -18 22 1 14 -6 24 -16 26 -10 2 -18
-1 -18 -7z"/>
<path d="M4900 2764 c0 -19 5 -34 10 -34 6 0 10 6 9 13 -3 23 1 37 11 37 6 0
10 -11 10 -25 0 -20 5 -25 26 -25 23 0 25 3 22 33 -3 30 -5 32 -45 33 -42 1
-43 0 -43 -32z m67 -16 c-3 -7 -5 -2 -5 12 0 14 2 19 5 13 2 -7 2 -19 0 -25z"/>
<path d="M5007 2794 c-11 -11 -8 -52 3 -59 6 -3 15 -3 22 1 8 5 6 10 -8 15
-17 7 -18 8 -1 8 12 1 17 7 15 18 -3 18 -20 27 -31 17z"/>
<path d="M5105 2790 c-3 -5 0 -10 8 -10 9 0 15 -10 15 -25 0 -16 -6 -25 -17
-25 -14 0 -14 -2 -1 -10 21 -13 39 6 35 38 -2 15 -4 30 -4 35 -1 11 -29 9 -36
-3z"/>
<path d="M5180 2791 c0 -6 5 -13 10 -16 8 -5 7 -11 -1 -21 -6 -8 -9 -18 -5
-21 4 -4 11 -1 15 6 7 11 9 11 13 0 3 -8 9 -11 13 -7 4 4 3 14 -3 21 -9 10 -9
16 0 25 6 6 8 15 4 19 -4 4 -11 1 -16 -7 -7 -10 -10 -11 -10 -2 0 6 -4 12 -10
12 -5 0 -10 -4 -10 -9z"/>
<path d="M5265 2790 c-3 -5 1 -10 9 -10 19 0 21 -16 4 -23 -10 -4 -10 -6 0 -6
18 -1 15 -21 -4 -21 -8 0 -12 -5 -9 -11 5 -6 16 -4 32 7 24 15 26 15 20 0 -4
-10 -3 -15 3 -11 16 10 12 35 -6 35 -10 0 -14 6 -11 14 9 24 -25 47 -38 26z"/>
<path d="M8125 2790 c-8 -13 20 -24 36 -15 8 6 7 10 -2 16 -18 11 -26 11 -34
-1z"/>
<path d="M8185 2780 c3 -5 8 -10 11 -10 2 0 4 5 4 10 0 6 -5 10 -11 10 -5 0
-7 -4 -4 -10z"/>
<path d="M8068 2763 c12 -2 30 -2 40 0 9 3 -1 5 -23 4 -22 0 -30 -2 -17 -4z"/>
<path d="M2455 2740 c-3 -5 -1 -10 4 -10 6 0 11 5 11 10 0 6 -2 10 -4 10 -3 0
-8 -4 -11 -10z"/>
<path d="M7520 2699 l0 -46 48 -1 c29 -1 42 1 34 7 -11 7 -11 9 2 14 10 4 16
1 16 -8 0 -8 6 -15 14 -15 9 0 12 7 9 19 -3 11 2 21 12 25 14 5 16 2 13 -19
-5 -22 -2 -25 22 -25 24 0 26 3 22 30 -4 28 -7 30 -48 30 -28 0 -44 -4 -44
-12 0 -9 -3 -9 -9 1 -13 20 -41 6 -41 -21 0 -18 -2 -20 -10 -8 -5 9 -5 19 2
27 8 9 7 13 -2 13 -7 0 -19 8 -26 18 -12 15 -13 11 -14 -29z m180 -19 c0 -11
-4 -20 -10 -20 -5 0 -10 9 -10 20 0 11 5 20 10 20 6 0 10 -9 10 -20z"/>
<path d="M7777 2700 c5 -37 4 -40 -18 -39 -18 1 -19 2 -6 6 22 6 19 36 -4 41
-9 2 -19 -4 -22 -13 -11 -27 4 -45 37 -45 31 0 31 0 28 45 -2 25 -8 45 -12 45
-4 0 -6 -18 -3 -40z"/>
<path d="M7830 2700 c0 -5 7 -7 15 -4 8 4 15 1 15 -5 0 -6 -5 -11 -12 -11 -9
0 -9 -3 0 -12 19 -19 14 -30 -9 -23 -15 5 -19 4 -15 -4 9 -15 43 -14 48 1 9
27 -5 68 -23 68 -11 0 -19 -4 -19 -10z"/>
<path d="M7917 2683 c10 -15 13 -24 6 -20 -6 4 -14 3 -18 -3 -4 -6 6 -10 24
-10 29 0 30 2 19 20 -11 17 -10 22 2 30 11 7 7 10 -18 10 l-32 0 17 -27z"/>
<path d="M7990 2699 c0 -5 4 -8 9 -4 5 3 12 1 16 -5 3 -5 1 -10 -6 -10 -8 0
-9 -3 0 -13 14 -17 4 -28 -17 -20 -13 5 -14 3 -5 -7 9 -10 17 -10 42 1 34 15
42 32 14 27 -14 -2 -17 3 -15 20 3 17 -2 22 -17 22 -12 0 -21 -5 -21 -11z"/>
<path d="M2159 2694 c0 -2 -1 -21 -2 -41 0 -31 3 -39 20 -41 48 -7 57 71 8 80
-14 3 -25 4 -26 2z m41 -40 c0 -31 -23 -28 -28 4 -2 15 2 22 12 22 11 0 16 -9
16 -26z"/>
<path d="M4835 2693 c-6 -2 -9 -21 -7 -43 4 -43 28 -54 52 -26 25 31 -8 83
-45 69z m39 -29 c7 -18 0 -34 -15 -34 -5 0 -9 11 -9 25 0 28 15 34 24 9z"/>
<path d="M2502 2653 c2 -20 8 -38 13 -40 7 -2 9 12 7 37 -2 22 -8 40 -14 40
-5 0 -8 -17 -6 -37z"/>
<path d="M5169 2685 c-3 -3 -4 -19 -1 -35 5 -36 31 -53 75 -47 31 4 31 4 -5 5
-30 2 -39 7 -43 25 -4 13 -5 29 -3 36 3 14 -14 26 -23 16z"/>
<path d="M2230 2644 c0 -19 5 -34 10 -34 6 0 10 11 10 25 0 31 17 33 22 3 4
-28 33 -36 42 -12 13 34 -2 51 -44 51 -39 0 -40 -1 -40 -33z m70 1 c0 -8 -4
-15 -10 -15 -5 0 -10 7 -10 15 0 8 5 15 10 15 6 0 10 -7 10 -15z"/>
<path d="M2328 2635 c-2 -34 0 -45 11 -45 8 0 11 3 8 7 -4 3 2 13 13 20 16 11
24 12 35 3 19 -16 35 -4 35 25 0 30 -16 41 -36 24 -11 -9 -18 -9 -26 -1 -23
23 -36 12 -40 -33z m32 10 c0 -8 -4 -15 -10 -15 -5 0 -10 7 -10 15 0 8 5 15
10 15 6 0 10 -7 10 -15z m60 0 c0 -8 -4 -15 -10 -15 -5 0 -10 7 -10 15 0 8 5
15 10 15 6 0 10 -7 10 -15z"/>
<path d="M2442 2650 c2 -27 8 -36 26 -38 19 -3 22 1 22 27 0 38 -20 52 -21 14
-1 -21 -3 -23 -6 -8 -9 38 -25 42 -21 5z"/>
<path d="M4900 2646 c0 -20 5 -36 10 -36 6 0 10 11 10 25 0 14 5 25 10 25 6 0
10 -9 10 -19 0 -26 17 -36 35 -21 12 10 22 48 13 51 -2 0 -22 2 -45 5 l-43 5
0 -35z m70 -1 c0 -8 -4 -15 -10 -15 -5 0 -10 7 -10 15 0 8 5 15 10 15 6 0 10
-7 10 -15z"/>
<path d="M4998 2635 c-2 -34 0 -45 11 -45 8 0 11 3 8 7 -4 3 2 13 13 20 17 12
24 12 37 2 13 -11 17 -10 28 4 11 15 14 15 18 3 3 -8 15 -14 26 -13 16 1 21 8
21 29 0 36 -20 47 -21 11 -1 -21 -3 -23 -6 -8 -7 29 -23 43 -23 20 0 -18 0
-18 -14 0 -12 17 -16 17 -30 6 -13 -11 -20 -11 -28 -3 -23 23 -36 12 -40 -33z
m32 10 c0 -8 -4 -15 -10 -15 -5 0 -10 7 -10 15 0 8 5 15 10 15 6 0 10 -7 10
-15z m60 0 c0 -8 -4 -15 -10 -15 -5 0 -10 7 -10 15 0 8 5 15 10 15 6 0 10 -7
10 -15z"/>
<path d="M5278 2640 c2 -16 8 -30 13 -30 5 0 9 14 9 30 0 18 -5 30 -13 30 -9
0 -12 -10 -9 -30z"/>
<path d="M7545 2570 c0 -31 4 -40 17 -40 31 0 48 12 48 34 0 28 -18 46 -44 46
-18 0 -21 -6 -21 -40z m45 -6 c0 -13 -4 -24 -10 -24 -5 0 -10 14 -10 31 0 17
4 28 10 24 6 -3 10 -17 10 -31z"/>
<path d="M7888 2600 c-2 -6 -41 -11 -88 -11 l-85 -2 4 -43 c1 -24 8 -44 13
-44 6 0 8 7 4 15 -3 9 0 15 9 15 8 0 15 5 15 12 0 9 3 9 12 0 22 -22 46 -14
51 16 l4 27 2 -27 c1 -23 6 -28 27 -28 20 0 24 4 19 19 -3 11 -1 22 5 26 6 4
10 -4 10 -19 0 -17 6 -26 15 -26 13 0 13 3 3 20 -10 15 -10 22 -2 28 9 5 8 10
-1 19 -8 7 -15 8 -17 3z m-138 -40 c0 -11 -4 -20 -10 -20 -5 0 -10 9 -10 20 0
11 5 20 10 20 6 0 10 -9 10 -20z m60 0 c0 -11 -4 -20 -10 -20 -5 0 -10 9 -10
20 0 11 5 20 10 20 6 0 10 -9 10 -20z m50 -1 c0 -11 -4 -17 -10 -14 -5 3 -10
13 -10 21 0 8 5 14 10 14 6 0 10 -9 10 -21z"/>
<path d="M7620 2560 c0 -19 5 -30 14 -30 9 0 12 7 9 20 -3 11 -1 20 5 20 5 0
12 -9 15 -21 8 -30 42 -21 42 11 0 22 -5 25 -42 27 -42 3 -43 2 -43 -27z m70
0 c0 -11 -4 -20 -10 -20 -5 0 -10 9 -10 20 0 11 5 20 10 20 6 0 10 -9 10 -20z"/>
<path d="M7995 2579 c-4 -6 -4 -13 -1 -16 3 -4 6 -1 6 5 0 7 5 12 11 12 6 0 9
-7 5 -15 -3 -8 -1 -15 4 -15 6 0 10 9 10 20 0 21 -24 27 -35 9z"/>
<path d="M7994 2539 c-3 -5 6 -9 20 -9 31 0 34 6 6 13 -11 3 -23 1 -26 -4z"/>
<path d="M7938 2513 c12 -2 30 -2 40 0 9 3 -1 5 -23 4 -22 0 -30 -2 -17 -4z"/>
<path d="M8040 2160 l0 -240 -120 0 c-100 0 -120 3 -120 15 0 8 -4 15 -8 15
-4 0 -6 -17 -4 -37 l5 -37 -37 22 c-20 12 -36 18 -36 14 0 -7 63 -42 75 -42 3
0 5 9 5 20 0 19 7 20 120 20 l120 0 3 -277 c1 -153 3 -43 5 245 1 287 0 522
-3 522 -3 0 -5 -108 -5 -240z"/>
<path d="M5507 2062 c-22 -25 -25 -213 -3 -231 10 -8 140 -11 456 -11 316 0
446 3 456 11 9 7 14 31 14 61 0 44 2 49 18 43 36 -15 52 -17 52 -6 0 7 47 11
138 14 l137 3 -142 2 c-126 2 -142 4 -136 18 5 15 3 15 -25 0 -17 -9 -33 -16
-37 -16 -3 0 -5 25 -5 55 0 43 -4 56 -19 65 -13 6 -174 10 -454 10 -408 0
-435 -1 -450 -18z m228 -72 c3 -5 19 -10 36 -10 16 0 29 -4 29 -10 0 -5 -6
-10 -14 -10 -7 0 -16 -8 -18 -18 -4 -13 -15 -18 -44 -17 -33 0 -39 4 -42 23
-2 13 -1 30 2 38 6 16 42 19 51 4z m357 -27 c-15 -11 -15 -14 -2 -23 28 -18
80 -12 100 13 17 20 17 23 2 28 -15 6 -15 8 1 14 27 11 45 -10 29 -35 -7 -12
-8 -20 -2 -20 5 0 10 -4 10 -9 0 -13 -100 -23 -135 -13 -20 6 -31 16 -33 30
-2 12 -8 22 -13 22 -6 0 -8 -4 -5 -9 4 -5 4 -16 0 -24 -6 -17 -100 -21 -110
-5 -4 7 -9 7 -13 0 -3 -5 -16 -12 -28 -16 -17 -6 -23 -3 -23 8 0 14 -3 14 -20
4 -16 -10 -23 -10 -36 4 -14 14 -15 20 -4 32 15 19 50 21 50 4 0 -10 2 -10 8
-2 4 7 34 12 75 11 61 0 67 -2 68 -21 0 -19 1 -19 8 -3 10 26 52 46 73 33 15
-9 15 -11 0 -23z"/>
<path d="M5700 1960 c0 -13 5 -20 13 -17 6 2 12 10 12 17 0 7 -6 15 -12 18 -8
2 -13 -5 -13 -18z"/>
<path d="M5831 1954 c0 -11 3 -14 6 -6 3 7 2 16 -1 19 -3 4 -6 -2 -5 -13z"/>
<path d="M5950 1956 c0 -9 5 -16 10 -16 6 0 10 4 10 9 0 6 -4 13 -10 16 -5 3
-10 -1 -10 -9z"/>
<path d="M5890 1949 c0 -5 5 -7 10 -4 6 3 10 8 10 11 0 2 -4 4 -10 4 -5 0 -10
-5 -10 -11z"/>
<path d="M1676 2054 c-3 -9 -6 -33 -6 -55 0 -22 -5 -39 -11 -39 -8 0 -8 -4 -1
-13 6 -7 12 -35 14 -62 l3 -50 220 -5 c121 -3 326 -3 455 0 l235 5 3 104 c2
67 -1 108 -9 117 -9 12 -87 14 -454 14 -395 0 -444 -2 -449 -16z m324 -59 c0
-10 10 -15 30 -15 17 0 30 -5 30 -12 0 -6 11 -1 24 11 30 28 58 24 66 -9 5
-22 7 -23 13 -6 5 13 14 17 32 14 17 -4 25 -1 25 9 0 26 25 8 28 -20 2 -16 10
-27 18 -27 8 0 14 6 13 13 -6 50 19 63 32 16 7 -24 7 -24 8 4 1 40 21 33 21
-8 0 -32 3 -35 28 -34 15 1 38 4 52 9 22 6 23 8 7 15 -15 6 -16 10 -5 16 10 7
10 9 1 9 -7 0 -13 5 -13 10 0 6 11 10 25 10 22 0 24 -4 22 -37 -2 -31 -6 -38
-32 -45 -16 -5 -55 -6 -85 -2 -30 3 -97 6 -147 6 -88 0 -93 2 -93 22 0 18 -3
16 -20 -11 -21 -36 -30 -39 -47 -22 -8 8 -53 11 -127 11 l-116 -1 0 40 c0 21
5 39 10 39 6 0 10 -13 10 -30 0 -23 5 -30 19 -30 10 0 21 9 24 20 6 22 56 29
58 8 0 -10 2 -10 6 0 2 6 16 12 29 12 15 0 24 6 24 15 0 8 7 15 15 15 8 0 15
-7 15 -15z"/>
<path d="M2018 1953 c6 -2 12 -11 12 -19 0 -8 5 -14 11 -14 6 0 8 7 5 16 -3 9
-6 18 -6 20 0 2 -8 4 -17 3 -11 0 -13 -3 -5 -6z"/>
<path d="M1888 1943 c7 -3 16 -2 19 1 4 3 -2 6 -13 5 -11 0 -14 -3 -6 -6z"/>
<path d="M2951 2056 c-15 -18 -16 -188 -1 -216 10 -20 20 -20 454 -20 367 0
446 2 455 14 8 9 11 51 9 122 l-3 109 -451 3 c-381 2 -453 0 -463 -12z m356
-69 c5 -8 29 -12 63 -12 53 0 55 -1 58 -27 2 -16 -1 -28 -7 -28 -6 0 -11 10
-12 23 0 21 -1 21 -8 2 -9 -22 -65 -33 -76 -15 -4 6 -12 6 -24 -2 -27 -17 -51
-3 -51 30 0 16 3 32 7 35 11 11 42 8 50 -6z m168 -16 c-18 -7 -18 -8 -1 -18
22 -12 13 -33 -15 -33 -21 0 -27 19 -6 21 10 0 10 2 0 6 -25 9 -14 33 15 32
23 0 24 -2 7 -8z m83 -8 c2 -8 -6 -13 -20 -14 -17 -1 -18 -3 -5 -6 24 -6 22
-23 -3 -23 -23 0 -35 22 -26 46 7 18 47 15 54 -3z"/>
<path d="M3276 1972 c-2 -4 -1 -14 5 -22 7 -12 9 -10 9 8 0 23 -5 28 -14 14z"/>
<path d="M3348 1943 c6 -2 18 -2 25 0 6 3 1 5 -13 5 -14 0 -19 -2 -12 -5z"/>
<path d="M4230 2056 c-14 -17 -16 -204 -2 -218 4 -4 210 -8 457 -8 351 0 450
2 457 12 11 19 10 186 -2 209 -10 18 -26 19 -454 19 -375 0 -445 -2 -456 -14z
m340 -91 c0 -25 -4 -45 -10 -45 -5 0 -10 16 -10 36 0 32 -2 35 -22 28 -32 -9
-35 -14 -18 -24 13 -8 12 -10 -2 -10 -10 0 -17 -6 -15 -12 1 -7 -5 -13 -13
-13 -10 0 -15 11 -15 35 0 32 3 36 35 41 71 13 70 13 70 -36z m110 25 c0 -15
38 -12 43 3 3 9 8 9 21 -2 11 -9 38 -13 81 -12 56 2 64 0 70 -18 3 -12 4 -25
1 -30 -3 -4 -44 -9 -91 -9 -77 0 -85 2 -85 19 0 12 -7 19 -20 19 -11 0 -20 -4
-20 -10 0 -5 7 -10 15 -10 8 0 15 -4 15 -10 0 -6 -26 -10 -59 -10 l-60 0 1 30
c1 27 4 30 35 30 18 0 33 5 33 10 0 6 5 10 10 10 6 0 10 -4 10 -10z"/>
<path d="M4753 1963 c-18 -7 -16 -23 2 -23 8 0 15 7 15 15 0 8 -1 15 -2 14 -2
0 -9 -3 -15 -6z"/>
<path d="M4808 1943 c7 -3 16 -2 19 1 4 3 -2 6 -13 5 -11 0 -14 -3 -6 -6z"/>
<path d="M587 1993 c-10 -10 -8 -73 2 -73 26 0 41 15 41 40 0 16 -7 30 -16 34
-19 7 -19 7 -27 -1z m31 -36 c2 -10 -3 -17 -12 -17 -10 0 -16 9 -16 21 0 24
23 21 28 -4z"/>
<path d="M1080 1990 c0 -5 6 -10 13 -10 9 0 8 -3 -2 -9 -11 -7 -11 -9 0 -14
12 -5 11 -7 -1 -16 -8 -5 -11 -13 -7 -17 14 -15 36 20 30 49 -5 25 -33 40 -33
17z"/>
<path d="M7248 1993 c6 -2 12 -18 12 -34 0 -16 5 -29 10 -29 6 0 10 16 10 35
0 30 -3 35 -22 34 -13 0 -17 -3 -10 -6z"/>
<path d="M7435 1990 c-3 -5 1 -10 9 -10 20 0 20 -14 1 -30 -21 -17 -19 -30 5
-30 11 0 20 5 20 10 0 6 -5 10 -11 10 -8 0 -8 5 1 15 13 16 7 45 -9 45 -5 0
-13 -4 -16 -10z"/>
<path d="M7490 1960 c0 -37 2 -41 23 -38 18 2 22 9 22 38 0 29 -4 36 -22 38
-21 3 -23 -1 -23 -38z m40 0 c0 -11 -7 -20 -15 -20 -8 0 -15 9 -15 20 0 11 7
20 15 20 8 0 15 -9 15 -20z"/>
<path d="M7620 1991 c0 -5 6 -11 13 -14 9 -3 7 -10 -7 -25 -17 -20 -17 -22 -2
-28 9 -4 20 -3 24 1 4 4 1 10 -5 12 -10 3 -9 8 2 20 12 12 13 18 4 29 -13 16
-29 19 -29 5z"/>
<path d="M948 1984 c-10 -9 16 -64 29 -64 7 0 13 5 13 10 0 6 -4 10 -10 10 -5
0 -10 7 -10 15 0 8 6 15 13 15 8 0 7 4 -3 10 -17 11 -24 12 -32 4z"/>
<path d="M641 1953 c0 -27 1 -27 9 -6 7 16 14 21 26 16 12 -4 15 -3 10 5 -4 7
-16 12 -27 12 -14 0 -19 -7 -18 -27z"/>
<path d="M704 1966 c-9 -24 4 -48 23 -44 12 2 18 12 18 28 0 29 -32 41 -41 16z
m34 -14 c2 -7 -3 -12 -12 -12 -9 0 -16 7 -16 16 0 17 22 14 28 -4z"/>
<path d="M760 1945 c0 -39 6 -42 39 -19 19 14 25 14 32 3 7 -12 12 -12 30 -1
16 10 24 11 29 3 12 -20 40 0 39 28 l0 26 -11 -25 -11 -25 -6 25 c-5 16 -9 21
-14 13 -6 -10 -12 -10 -27 -1 -14 9 -22 9 -34 -1 -11 -9 -16 -10 -16 -2 0 6
-11 11 -25 11 -22 0 -25 -4 -25 -35z m40 4 c0 -5 -4 -9 -10 -9 -5 0 -10 7 -10
16 0 8 5 12 10 9 6 -3 10 -10 10 -16z m60 6 c0 -8 -4 -15 -10 -15 -5 0 -10 7
-10 15 0 8 5 15 10 15 6 0 10 -7 10 -15z"/>
<path d="M1353 1968 c-30 -14 -29 -22 2 -36 35 -16 35 -16 35 18 0 33 -4 34
-37 18z"/>
<path d="M2628 1969 c-25 -14 -22 -24 7 -37 33 -15 32 -16 38 8 3 11 1 20 -5
20 -5 0 -6 5 -3 10 8 13 -15 12 -37 -1z"/>
<path d="M3903 1968 c-27 -13 -29 -24 -5 -31 9 -2 24 -8 32 -11 11 -5 15 1 15
24 1 32 -7 35 -42 18z"/>
<path d="M5183 1968 c-30 -14 -29 -22 2 -36 35 -16 35 -16 35 18 0 33 -4 34
-37 18z"/>
<path d="M6811 1953 c0 -25 1 -26 9 -8 l9 20 1 -20 1 -20 8 20 8 20 5 -20 c5
-16 6 -14 7 8 1 22 -3 27 -24 27 -21 0 -25 -5 -24 -27z"/>
<path d="M6888 1974 c10 -5 9 -9 -4 -18 -21 -16 -11 -36 17 -36 29 0 23 54 -6
57 -11 2 -14 0 -7 -3z"/>
<path d="M6939 1967 c7 -7 7 -15 -2 -26 -10 -12 -9 -14 4 -9 9 4 21 2 26 -3 6
-6 10 0 10 18 0 23 -5 28 -25 30 -17 1 -21 -2 -13 -10z"/>
<path d="M7060 1945 c0 -29 3 -33 18 -28 9 4 20 11 23 16 4 5 16 3 28 -5 19
-11 24 -11 35 4 11 15 13 15 22 0 14 -21 44 -9 44 18 0 24 -25 37 -43 21 -10
-8 -17 -7 -25 1 -10 10 -17 10 -32 0 -12 -7 -21 -8 -25 -2 -3 6 -15 10 -26 10
-15 0 -19 -7 -19 -35z m26 -2 c-10 -10 -19 5 -10 18 6 11 8 11 12 0 2 -7 1
-15 -2 -18z m66 12 c0 -5 -5 -11 -11 -13 -6 -2 -11 4 -11 13 0 9 5 15 11 13 6
-2 11 -8 11 -13z m68 -6 c0 -5 -7 -9 -15 -9 -15 0 -20 12 -9 23 8 8 24 -1 24
-14z"/>
<path d="M7318 1955 c2 -14 8 -25 13 -25 5 0 9 11 9 25 0 14 -6 25 -14 25 -9
0 -12 -8 -8 -25z"/>
<path d="M7365 1970 c-3 -5 -1 -18 4 -27 10 -17 10 -17 11 0 0 9 5 17 10 17 6
0 10 -7 10 -15 0 -8 4 -15 9 -15 5 0 8 8 6 18 -2 9 -4 20 -4 25 -1 11 -39 9
-46 -3z"/>
<path d="M7008 1953 c6 -2 18 -2 25 0 6 3 1 5 -13 5 -14 0 -19 -2 -12 -5z"/>
<path d="M7563 1953 c9 -2 23 -2 30 0 6 3 -1 5 -18 5 -16 0 -22 -2 -12 -5z"/>
<path d="M1005 1920 c3 -5 17 -10 31 -10 13 0 24 5 24 10 0 6 -14 10 -31 10
-17 0 -28 -4 -24 -10z"/>
<path d="M3401 1553 c-1 -7 -8 -10 -16 -7 -8 4 -15 3 -15 0 0 -11 31 -68 34
-64 2 1 11 18 21 37 15 29 15 33 2 28 -9 -3 -18 -1 -21 6 -3 9 -5 9 -5 0z"/>
<path d="M5951 1552 c-1 -7 -6 -10 -13 -6 -11 7 -9 -10 7 -48 7 -17 -7 -18
-208 -18 -183 0 -218 -2 -231 -16 -12 -12 -16 -38 -16 -114 0 -76 4 -102 16
-114 14 -14 69 -16 458 -16 330 0 445 3 454 12 7 7 12 34 12 61 0 52 2 53 51
33 12 -5 15 0 15 24 0 24 -3 29 -15 24 -49 -20 -51 -19 -51 33 0 27 -5 54 -12
61 -9 9 -75 12 -235 12 l-224 0 16 30 c19 36 19 44 1 37 -8 -3 -17 -1 -20 6
-3 9 -5 8 -5 -1z m-377 -177 c-3 -44 -3 -45 -14 -45 -5 0 -10 13 -10 28 0 15
-6 34 -12 41 -11 10 -8 12 12 9 21 -2 25 -8 24 -33z m256 25 c0 -5 -4 -10 -10
-10 -14 0 -12 -54 2 -68 13 -13 8 -15 -16 -6 -30 11 -15 94 16 94 4 0 8 -4 8
-10z m532 -7 c22 -20 23 -46 2 -67 -24 -24 -36 -19 -19 8 15 23 12 56 -6 56
-5 0 -9 5 -9 10 0 15 11 12 32 -7z m-682 -3 c0 -5 20 -10 45 -10 41 0 45 -2
45 -25 0 -23 -3 -25 -51 -25 -42 0 -52 3 -56 20 -3 12 -13 20 -27 19 -11 0
-15 -3 -8 -6 22 -9 13 -33 -13 -33 -14 0 -25 4 -25 10 0 5 8 7 18 4 16 -5 16
-5 0 6 -28 18 -21 30 17 30 19 0 35 5 35 10 0 6 5 10 10 10 6 0 10 -4 10 -10z
m206 -5 c4 -8 1 -22 -5 -29 -9 -11 -9 -15 1 -19 7 -3 1 -6 -14 -6 -32 -1 -35
5 -11 31 15 17 15 18 0 18 -10 0 -17 5 -17 10 0 16 40 12 46 -5z m65 -7 l0
-23 9 22 c8 19 16 21 62 20 52 -2 53 -3 53 -32 l0 -30 -90 -1 c-49 0 -82 1
-72 3 19 5 23 23 5 23 -9 0 -8 4 2 10 13 9 13 11 0 20 -12 8 -11 10 8 10 16 0
22 -6 23 -22z m359 -7 c0 -16 6 -32 13 -34 6 -3 -4 -5 -23 -5 -19 0 -29 2 -22
5 15 6 16 43 1 43 -5 0 -7 5 -4 10 13 22 35 10 35 -19z m-116 -3 c-3 -5 -1
-15 6 -22 9 -11 4 -14 -25 -14 -27 0 -33 3 -26 12 7 9 7 16 -1 24 -8 8 -3 11
20 10 17 -1 29 -5 26 -10z"/>
<path d="M5686 1355 c4 -8 10 -15 15 -15 5 0 9 7 9 15 0 8 -7 15 -15 15 -9 0
-12 -6 -9 -15z"/>
<path d="M5980 1359 c0 -11 5 -17 10 -14 6 3 10 13 10 21 0 8 -4 14 -10 14 -5
0 -10 -9 -10 -21z"/>
<path d="M6040 1366 c0 -8 5 -18 10 -21 6 -3 10 3 10 14 0 12 -4 21 -10 21 -5
0 -10 -6 -10 -14z"/>
<path d="M780 1543 c0 -9 25 -53 30 -53 5 0 30 44 30 53 0 1 -13 2 -30 2 -16
1 -30 0 -30 -2z"/>
<path d="M2106 1518 c8 -15 17 -28 19 -28 2 0 11 13 19 28 l15 29 -34 0 -34 0
15 -29z"/>
<path d="M4650 1545 c0 -11 24 -55 30 -55 5 0 30 44 30 53 0 1 -14 3 -30 4
-17 1 -30 0 -30 -2z"/>
<path d="M7210 1544 c0 -10 24 -54 30 -54 6 0 30 44 30 54 0 1 -13 2 -30 2
-16 0 -30 -1 -30 -2z"/>
<path d="M396 1454 c-3 -8 -6 -24 -6 -34 0 -10 -6 -21 -12 -24 -10 -5 -10 -7
0 -12 8 -4 12 -28 12 -69 0 -41 5 -67 14 -74 9 -8 138 -10 457 -9 l444 3 0
115 0 115 -451 3 c-406 2 -452 1 -458 -14z m264 -89 c0 -33 -4 -45 -15 -45
-10 0 -15 10 -15 33 0 39 -6 48 -27 40 -12 -5 -12 -7 -1 -14 10 -7 10 -9 1 -9
-7 0 -13 -11 -13 -25 0 -19 -5 -25 -21 -25 -14 0 -19 5 -16 13 3 8 1 20 -3 27
-17 27 12 50 62 50 l48 0 0 -45z m470 7 c0 -15 5 -33 12 -40 9 -9 2 -12 -32
-11 -25 1 -37 3 -27 6 10 3 17 14 17 29 0 16 -6 24 -17 24 -15 0 -16 2 -3 10
30 19 50 12 50 -18z m-253 5 c3 -4 -1 -7 -10 -7 -23 0 -22 -37 1 -44 9 -2 4
-4 -13 -3 -23 2 -31 7 -33 25 -2 14 -10 22 -23 22 -24 0 -26 -37 -1 -43 9 -3
-13 -5 -50 -6 l-67 -1 1 29 c1 24 6 31 27 33 43 5 161 1 168 -5z m143 -7 c0
-5 14 -10 30 -10 17 0 30 -4 30 -10 0 -5 -13 -10 -30 -10 -16 0 -30 -4 -30
-10 0 -21 -30 -9 -31 13 l-2 22 -4 -22 c-4 -20 -11 -23 -48 -23 -44 0 -60 15
-49 45 5 11 22 15 70 15 36 0 64 -4 64 -10z"/>
<path d="M752 1350 c0 -14 2 -19 5 -12 2 6 2 18 0 25 -3 6 -5 1 -5 -13z"/>
<path d="M928 1333 c7 -3 16 -2 19 1 4 3 -2 6 -13 5 -11 0 -14 -3 -6 -6z"/>
<path d="M2946 1454 c-13 -33 -7 -201 8 -213 9 -8 139 -10 462 -9 l449 3 0
115 0 115 -456 3 c-410 2 -457 1 -463 -14z m299 -64 c3 -5 33 -10 66 -10 56 0
59 -1 59 -25 0 -28 -19 -35 -21 -7 -1 16 -2 16 -6 0 -5 -21 -23 -24 -23 -4 0
10 -7 12 -22 8 -21 -5 -21 -6 -2 -12 11 -5 -7 -8 -43 -8 l-63 0 0 34 c0 29 3
34 24 34 14 0 28 -4 31 -10z m355 -19 c0 -16 6 -32 13 -34 6 -3 -2 -6 -19 -6
-28 -1 -31 2 -26 24 3 17 0 25 -9 25 -11 0 -11 2 1 10 27 17 40 11 40 -19z
m-179 2 c-10 -4 -11 -7 -1 -13 18 -11 3 -30 -23 -29 -21 0 -21 1 -2 9 17 7 17
9 3 9 -10 1 -18 8 -18 16 0 10 9 15 28 14 15 0 21 -3 13 -6z m73 -2 c3 -5 15
-7 25 -4 10 3 22 -1 26 -7 5 -8 -2 -11 -21 -10 -16 1 -38 1 -49 0 l-20 -1 20
-9 c18 -8 17 -9 -7 -9 -23 -1 -28 3 -28 24 0 20 5 25 24 25 14 0 27 -4 30 -9z"/>
<path d="M3210 1365 c0 -8 5 -15 10 -15 6 0 10 7 10 15 0 8 -4 15 -10 15 -5 0
-10 -7 -10 -15z"/>
<path d="M4232 1458 c-16 -16 -16 -200 0 -216 17 -17 889 -17 906 0 8 8 12 47
12 108 0 61 -4 100 -12 108 -17 17 -889 17 -906 0z m316 -87 c2 -20 -2 -37 -9
-42 -21 -12 -29 -1 -22 31 3 19 1 30 -6 30 -6 0 -11 5 -11 11 0 6 10 9 23 7
17 -2 23 -11 25 -37z m112 19 c0 -6 19 -9 43 -8 25 2 41 -1 40 -8 -1 -6 10 -9
28 -6 17 3 29 0 29 -7 0 -6 -13 -11 -30 -11 -17 0 -30 -5 -30 -12 0 -12 -15
-13 -97 -9 -7 1 -13 10 -13 21 0 14 -7 20 -22 20 -21 0 -21 -1 -3 -13 19 -15
12 -25 -25 -32 -16 -3 -20 2 -20 26 0 25 4 29 29 29 17 0 33 5 36 10 8 13 35
13 35 0z m192 -22 c-2 -18 1 -28 10 -29 7 0 2 -4 -10 -10 -15 -6 -30 -5 -40 1
-10 5 -12 10 -4 10 15 0 16 40 1 40 -5 0 -7 5 -4 11 4 5 17 9 28 7 18 -2 21
-9 19 -30z"/>
<path d="M4660 1355 c0 -8 5 -15 10 -15 6 0 10 7 10 15 0 8 -4 15 -10 15 -5 0
-10 -7 -10 -15z"/>
<path d="M1887 1393 c-3 -4 -5 -21 -5 -36 0 -24 4 -28 27 -25 22 2 26 8 26 33
0 23 -5 31 -22 33 -11 2 -23 0 -26 -5z m36 -39 c-9 -23 -23 -16 -23 12 0 22 2
24 14 14 8 -6 12 -18 9 -26z"/>
<path d="M2197 1387 c-8 -21 12 -57 30 -56 11 0 13 3 6 6 -15 6 -17 30 -3 35
6 2 2 8 -9 15 -15 9 -20 9 -24 0z"/>
<path d="M2335 1390 c-3 -5 -3 -15 1 -22 4 -6 3 -8 -4 -4 -6 3 -13 2 -17 -3
-5 -9 23 -31 39 -31 3 0 6 13 6 29 0 31 -14 49 -25 31z"/>
<path d="M7000 1380 c0 -11 7 -20 15 -20 21 0 19 -17 -2 -24 -11 -3 -8 -4 6
-3 31 3 40 27 12 34 -31 8 -25 23 9 23 27 0 30 -3 30 -30 0 -16 5 -30 10 -30
6 0 10 14 10 30 0 41 20 38 21 -2 0 -18 3 -27 6 -20 6 16 21 15 39 -3 9 -9 31
-14 52 -13 l37 1 -37 4 c-35 4 -43 12 -39 37 1 5 -1 16 -4 25 -5 13 -7 14 -16
1 -8 -11 -12 -12 -16 -2 -3 8 -27 12 -69 12 -57 0 -64 -2 -64 -20z"/>
<path d="M7500 1393 c0 -7 -9 -13 -20 -13 -13 0 -20 -7 -20 -20 0 -27 -18 -25
-23 3 -4 19 -4 18 -6 -5 -1 -24 3 -28 24 -28 18 0 25 5 25 20 0 11 5 20 10 20
6 0 10 -9 10 -20 0 -14 6 -20 23 -19 16 1 18 2 5 6 -10 2 -18 11 -18 19 0 8 8
14 18 15 13 0 14 2 2 6 -8 3 -18 11 -22 17 -5 8 -8 7 -8 -1z"/>
<path d="M1352 1372 l-33 -18 34 -16 34 -16 0 34 c0 19 -1 34 -1 34 -1 -1 -16
-9 -34 -18z"/>
<path d="M2626 1371 l-29 -19 31 -16 c17 -9 33 -16 35 -16 5 0 -1 61 -6 66 -2
2 -16 -5 -31 -15z"/>
<path d="M3908 1374 c-16 -8 -28 -17 -28 -19 0 -2 14 -11 30 -20 l30 -16 0 36
c0 19 -1 35 -2 35 -2 -1 -15 -8 -30 -16z"/>
<path d="M5188 1374 c-16 -8 -28 -17 -28 -19 0 -2 14 -11 30 -20 l30 -16 0 36
c0 19 -1 35 -2 35 -2 -1 -15 -8 -30 -16z"/>
<path d="M6930 1360 c0 -26 3 -30 28 -29 16 1 20 3 10 6 -11 3 -18 14 -18 29
0 13 -4 24 -10 24 -5 0 -10 -13 -10 -30z"/>
<path d="M1951 1353 c0 -27 0 -28 10 -5 5 13 13 20 19 17 5 -3 10 -1 10 4 0 6
-9 11 -20 11 -15 0 -20 -6 -19 -27z"/>
<path d="M2010 1355 c0 -22 4 -26 23 -23 14 2 22 10 22 23 0 13 -8 21 -22 23
-19 3 -23 -1 -23 -23z m32 0 c0 -5 -5 -11 -11 -13 -6 -2 -11 4 -11 13 0 9 5
15 11 13 6 -2 11 -8 11 -13z"/>
<path d="M2070 1346 c0 -33 1 -34 25 -23 35 17 35 57 0 57 -22 0 -25 -4 -25
-34z m40 15 c0 -6 -4 -13 -10 -16 -5 -3 -10 1 -10 9 0 9 5 16 10 16 6 0 10 -4
10 -9z"/>
<path d="M2130 1355 c0 -20 5 -25 25 -25 20 0 25 5 25 25 0 14 -4 25 -10 25
-5 0 -7 -6 -4 -14 3 -8 1 -17 -5 -21 -10 -5 -15 7 -12 28 0 4 -3 7 -9 7 -5 0
-10 -11 -10 -25z"/>
<path d="M7248 1373 c6 -2 12 -13 12 -24 0 -10 5 -19 10 -19 6 0 10 11 10 25
0 19 -5 25 -22 24 -13 0 -17 -3 -10 -6z"/>
<path d="M7300 1355 c0 -14 5 -25 10 -25 6 0 10 9 10 20 0 27 18 25 23 -2 4
-20 4 -19 6 5 1 23 -3 27 -24 27 -20 0 -25 -5 -25 -25z"/>
<path d="M7369 1378 c-6 -18 -4 -60 3 -64 4 -3 8 -1 8 4 0 5 9 12 21 15 28 7
21 41 -9 45 -12 2 -22 2 -23 0z m31 -23 c0 -8 -4 -15 -10 -15 -5 0 -10 7 -10
15 0 8 5 15 10 15 6 0 10 -7 10 -15z"/>
<path d="M7741 1361 l-35 -19 43 -21 c42 -22 43 -22 48 -2 5 19 14 21 132 24
l126 3 -127 2 c-106 2 -128 5 -128 17 0 20 -17 18 -59 -4z m49 -21 l0 -31 -32
17 -32 16 25 14 c35 19 39 17 39 -16z"/>
<path d="M2260 1360 c0 -5 9 -10 20 -10 11 0 20 5 20 10 0 6 -9 10 -20 10 -11
0 -20 -4 -20 -10z"/>
<path d="M1538 1353 c12 -2 30 -2 40 0 9 3 -1 5 -23 4 -22 0 -30 -2 -17 -4z"/>
<path d="M3978 1353 c7 -3 16 -2 19 1 4 3 -2 6 -13 5 -11 0 -14 -3 -6 -6z"/>
<path d="M5617 570 c-21 -17 -26 -18 -31 -5 -7 18 -47 20 -64 3 -9 -9 -15 -9
-24 0 -17 17 -48 15 -68 -3 -15 -14 -18 -14 -30 0 -16 19 -44 19 -60 0 -12
-14 -15 -14 -30 0 -9 8 -24 15 -32 15 -9 0 -21 -7 -28 -15 -12 -14 -15 -14
-30 0 -21 19 -44 19 -60 0 -12 -14 -15 -14 -30 0 -21 19 -39 19 -61 -1 -17
-15 -19 -15 -34 0 -21 20 -34 20 -57 -1 -17 -15 -19 -15 -38 2 -18 17 -21 17
-45 1 -23 -15 -28 -15 -47 -2 -20 14 -24 14 -46 0 -17 -12 -27 -13 -35 -5 -16
16 -53 13 -68 -5 -11 -14 -13 -14 -21 0 -12 21 -47 20 -70 0 -16 -16 -18 -16
-24 0 -8 20 -47 21 -64 1 -12 -14 -15 -14 -30 0 -21 19 -44 19 -60 0 -12 -14
-15 -14 -30 0 -21 19 -44 19 -59 1 -10 -12 -16 -12 -41 2 -27 15 -30 15 -49
-2 -19 -17 -21 -17 -36 -2 -21 20 -34 20 -56 0 -16 -14 -20 -14 -41 0 -22 14
-26 14 -46 0 -19 -13 -24 -13 -45 0 -21 14 -25 14 -46 0 -17 -12 -26 -13 -34
-5 -16 16 -52 14 -68 -5 -11 -14 -13 -14 -21 0 -11 20 -52 21 -68 1 -11 -13
-14 -13 -27 0 -19 19 -47 19 -63 0 -12 -14 -15 -14 -30 0 -21 19 -44 19 -60 0
-12 -14 -15 -14 -30 0 -21 19 -44 19 -59 1 -10 -12 -16 -12 -41 2 -27 15 -30
15 -49 -2 -19 -17 -21 -17 -36 -2 -20 20 -25 20 -54 0 -17 -12 -26 -13 -34 -5
-15 15 -50 14 -65 -1 -9 -9 -15 -9 -24 0 -17 17 -53 15 -69 -4 -11 -14 -13
-14 -21 0 -11 19 -49 21 -66 4 -9 -9 -15 -9 -24 0 -19 19 -56 14 -69 -9 -9
-18 -7 -25 9 -42 20 -19 22 -19 47 -3 23 15 28 15 46 2 21 -14 48 -11 60 7 4
6 16 3 30 -7 29 -20 34 -20 53 0 14 14 18 14 37 0 22 -15 48 -11 61 8 5 8 11
7 20 -2 17 -17 65 -15 72 4 5 14 7 14 22 0 20 -20 48 -20 64 -1 12 14 15 14
30 0 21 -19 44 -19 63 0 13 13 16 13 27 0 16 -19 44 -19 60 0 12 14 15 14 30
0 21 -19 44 -19 60 0 10 12 15 12 36 -2 22 -14 26 -14 49 1 23 15 27 15 41 1
19 -19 24 -19 53 1 17 12 26 13 34 5 15 -15 50 -14 65 1 9 9 15 9 24 0 15 -15
51 -15 66 0 9 9 15 9 24 0 17 -17 53 -15 68 3 11 13 14 13 27 0 19 -19 47 -19
63 0 12 14 15 14 30 0 21 -19 44 -19 60 0 12 14 15 14 30 0 9 -8 24 -15 32
-15 9 0 21 7 28 15 12 14 15 14 30 0 21 -19 44 -19 59 -1 10 12 16 12 41 -2
27 -16 30 -15 50 3 13 12 24 15 28 9 14 -21 45 -25 63 -8 16 14 19 14 41 0 22
-14 26 -14 46 0 19 13 24 13 45 0 21 -14 25 -14 46 0 17 12 26 13 34 5 15 -15
50 -14 65 1 9 9 15 9 24 0 17 -17 53 -15 68 3 11 13 14 13 27 0 19 -19 47 -19
63 0 12 14 15 14 30 0 9 -8 23 -15 30 -15 7 0 21 7 30 15 15 14 18 14 30 0 16
-20 57 -19 68 1 8 14 10 14 21 0 17 -20 45 -21 60 -2 10 12 16 12 39 0 23 -12
30 -11 50 2 18 12 27 13 37 4 24 -20 60 -8 63 22 5 39 -28 54 -61 28z"/>
<path d="M120 479 c0 -5 5 -7 10 -4 6 3 10 8 10 11 0 2 -4 4 -10 4 -5 0 -10
-5 -10 -11z"/>
<path d="M1587 443 c-11 -10 -8 -221 2 -228 13 -7 1069 -7 1082 0 10 7 13 194
3 219 -6 14 -63 16 -543 16 -296 0 -541 -3 -544 -7z m193 -73 c0 -5 14 -10 30
-10 17 0 30 -4 30 -10 0 -5 -7 -10 -15 -10 -9 0 -15 -9 -15 -21 0 -17 -3 -19
-14 -10 -10 8 -16 9 -21 1 -3 -5 -15 -10 -26 -10 -16 0 -19 7 -19 40 0 36 3
40 25 40 14 0 25 -4 25 -10z m360 -18 c-14 -5 -12 -29 3 -35 6 -2 9 -8 5 -12
-12 -13 -38 4 -38 25 0 11 -4 20 -10 20 -5 0 -10 -8 -10 -19 0 -10 -9 -21 -19
-24 -25 -6 -31 0 -31 30 0 30 20 30 21 1 l2 -23 4 23 c3 14 12 22 24 22 10 0
19 5 19 10 0 6 8 5 20 -2 11 -7 16 -14 10 -16z m100 -2 c0 -20 5 -30 15 -30 8
0 15 -4 15 -10 0 -5 -10 -8 -22 -6 -18 2 -24 10 -26 39 -2 21 1 37 7 37 6 0
11 -13 11 -30z m-212 -16 c3 -24 -25 -41 -41 -25 -7 7 -20 4 -40 -7 -23 -13
-31 -14 -34 -5 -3 8 -14 11 -29 7 -17 -4 -26 -1 -30 10 -14 37 1 45 88 43 76
-2 83 -4 86 -23z m340 13 c7 -6 12 -6 12 0 0 6 31 11 70 11 39 0 70 -4 70 -9
0 -5 -7 -9 -15 -9 -8 0 -15 -7 -15 -15 0 -8 -6 -15 -12 -16 -7 0 -22 -2 -33
-4 -11 -3 -26 3 -33 13 -13 16 -15 15 -29 -5 -9 -13 -23 -23 -32 -23 -12 0
-13 2 -3 8 8 5 10 16 6 27 -7 17 -8 17 -15 -2 -8 -22 -55 -27 -53 -5 1 6 2 19
3 27 1 17 57 18 79 2z"/>
<path d="M1750 339 c0 -11 5 -17 10 -14 6 3 10 13 10 21 0 8 -4 14 -10 14 -5
0 -10 -9 -10 -21z"/>
<path d="M1870 336 c0 -9 5 -16 10 -16 6 0 10 4 10 9 0 6 -4 13 -10 16 -5 3
-10 -1 -10 -9z"/>
<path d="M1941 334 c0 -11 3 -14 6 -6 3 7 2 16 -1 19 -3 4 -6 -2 -5 -13z"/>
<path d="M1995 341 c-3 -5 -1 -12 5 -16 5 -3 10 1 10 9 0 18 -6 21 -15 7z"/>
<path d="M2438 323 c6 -2 18 -2 25 0 6 3 1 5 -13 5 -14 0 -19 -2 -12 -5z"/>
<path d="M690 369 c0 -5 5 -7 10 -4 6 3 10 8 10 11 0 2 -4 4 -10 4 -5 0 -10
-5 -10 -11z"/>
<path d="M2870 331 c0 -28 1 -29 30 -18 37 14 37 20 5 35 -35 16 -35 16 -35
-17z"/>
<path d="M4035 339 c-4 -6 -5 -12 -2 -15 2 -3 7 2 10 11 7 17 1 20 -8 4z"/>
<path d="M4477 336 c-6 -15 -10 -16 -23 -5 -13 10 -17 10 -24 -1 -7 -11 -11
-11 -23 -1 -9 6 -18 8 -20 4 -6 -10 -203 -10 -213 0 -4 4 -13 2 -20 -4 -8 -7
-14 -7 -19 1 -9 15 -25 12 -25 -5 0 -20 -17 -19 -29 3 -9 15 -10 15 -11 -5 0
-16 6 -23 20 -23 11 0 20 -4 20 -10 0 -5 -9 -10 -20 -10 -11 0 -19 -6 -18 -12
2 -8 -12 -14 -37 -16 -22 -2 -44 -8 -49 -13 -6 -5 -19 -9 -30 -9 -24 0 -16 -9
15 -16 13 -3 34 -8 47 -11 22 -5 32 12 10 19 -6 2 78 3 188 2 114 -1 215 3
236 9 27 7 41 7 51 -1 9 -8 32 -10 61 -6 33 3 46 2 41 -5 -9 -15 41 -13 85 3
l35 13 -52 7 c-29 3 -58 13 -66 20 -7 8 -22 16 -33 18 -10 2 -19 10 -19 18 0
24 -25 57 -31 43 -7 -16 -31 -17 -36 -1 -3 7 -7 5 -11 -6z m63 -36 c0 -5 -4
-10 -10 -10 -5 0 -10 5 -10 10 0 6 5 10 10 10 6 0 10 -4 10 -10z"/>
<path d="M4570 331 c0 -23 16 -36 25 -21 3 5 2 10 -4 10 -6 0 -8 7 -5 15 4 8
1 15 -5 15 -6 0 -11 -9 -11 -19z"/>
<path d="M4615 341 c-3 -5 -1 -12 5 -16 5 -3 10 1 10 9 0 18 -6 21 -15 7z"/>
<path d="M2733 333 c9 -2 23 -2 30 0 6 3 -1 5 -18 5 -16 0 -22 -2 -12 -5z"/>
<path d="M4732 215 c-4 -7 -14 -15 -22 -18 -8 -3 -3 -5 12 -4 15 1 24 5 22 9
-3 4 11 8 31 8 20 0 34 4 30 9 -8 14 -64 10 -73 -4z"/>
<path d="M3875 210 l-30 -8 30 -1 c17 0 37 4 45 9 13 9 13 10 0 9 -8 -1 -28
-5 -45 -9z"/>
<path d="M4175 210 c3 -5 14 -10 23 -10 15 0 15 2 2 10 -20 13 -33 13 -25 0z"/>
<path d="M4458 213 c6 -2 18 -2 25 0 6 3 1 5 -13 5 -14 0 -19 -2 -12 -5z"/>
<path d="M4855 200 c3 -5 18 -10 33 -10 21 0 24 2 12 10 -20 13 -53 13 -45 0z"/>
<path d="M4398 193 c7 -3 16 -2 19 1 4 3 -2 6 -13 5 -11 0 -14 -3 -6 -6z"/>
<path d="M4558 193 c7 -3 16 -2 19 1 4 3 -2 6 -13 5 -11 0 -14 -3 -6 -6z"/>
<path d="M3758 183 c12 -2 30 -2 40 0 9 3 -1 5 -23 4 -22 0 -30 -2 -17 -4z"/>
<path d="M3923 183 c9 -2 23 -2 30 0 6 3 -1 5 -18 5 -16 0 -22 -2 -12 -5z"/>
<path d="M4942 173 c-16 -14 -18 -23 -12 -40 11 -28 64 -32 74 -7 9 23 7 54
-3 54 -5 0 -16 2 -24 5 -7 3 -23 -2 -35 -12z"/>
<path d="M5020 180 c0 -5 5 -10 11 -10 5 0 7 5 4 10 -3 6 -8 10 -11 10 -2 0
-4 -4 -4 -10z"/>
<path d="M4215 167 c-21 -16 -15 -61 11 -71 43 -17 76 52 35 74 -25 13 -24 13
-46 -3z"/>
<path d="M4306 171 c-3 -5 5 -8 19 -7 14 0 25 4 25 9 0 10 -38 9 -44 -2z"/>
<path d="M4398 169 c-38 -21 -11 -74 34 -67 17 2 24 11 26 32 5 40 -23 57 -60
35z"/>
<path d="M4493 173 c9 -2 23 -2 30 0 6 3 -1 5 -18 5 -16 0 -22 -2 -12 -5z"/>
<path d="M4575 166 c-17 -12 -18 -18 -7 -40 16 -36 61 -34 74 4 14 40 -30 64
-67 36z"/>
<path d="M4663 173 c9 -2 23 -2 30 0 6 3 -1 5 -18 5 -16 0 -22 -2 -12 -5z"/>
<path d="M4750 165 c-10 -12 -9 -20 4 -40 19 -29 38 -32 60 -9 18 17 19 24 10
48 -8 20 -57 21 -74 1z"/>
<path d="M4838 173 c6 -2 18 -2 25 0 6 3 1 5 -13 5 -14 0 -19 -2 -12 -5z"/>
<path d="M5113 164 c-10 -26 11 -49 43 -49 26 0 29 4 29 30 0 27 -4 30 -33 33
-23 2 -34 -2 -39 -14z"/>
<path d="M3660 155 c-10 -12 -10 -21 -2 -40 14 -31 56 -34 72 -5 24 44 -38 83
-70 45z"/>
<path d="M3813 163 c20 -3 27 -10 27 -27 0 -47 53 -63 72 -21 18 39 -3 55 -71
54 -31 -1 -44 -4 -28 -6z"/>
<path d="M3973 163 c9 -2 23 -2 30 0 6 3 -1 5 -18 5 -16 0 -22 -2 -12 -5z"/>
<path d="M4027 163 c-26 -26 12 -80 47 -67 21 8 30 42 16 59 -13 15 -51 20
-63 8z"/>
<path d="M4148 163 c6 -2 18 -2 25 0 6 3 1 5 -13 5 -14 0 -19 -2 -12 -5z"/>
<path d="M3475 140 c-9 -28 12 -52 44 -48 22 2 26 8 26 33 0 26 -4 30 -32 33
-25 2 -33 -1 -38 -18z"/>
</g>
</svg>
